<mxfile host="Electron" modified="2024-03-11T00:00:53.406Z" agent="Mozilla/5.0 (Macintosh; Intel Mac OS X 10_15_7) AppleWebKit/537.36 (KHTML, like Gecko) draw.io/24.0.4 Chrome/120.0.6099.109 Electron/28.1.0 Safari/537.36" etag="1Eb6nVTnU6HtztR4MhDz" version="24.0.4" type="device" pages="2">
  <diagram name="StackSetMethod" id="sWCDy8zIVzYhE5Y4XB8k">
    <mxGraphModel dx="1212" dy="774" grid="1" gridSize="10" guides="1" tooltips="1" connect="1" arrows="1" fold="1" page="1" pageScale="1" pageWidth="1169" pageHeight="827" math="0" shadow="0">
      <root>
        <mxCell id="0" />
        <mxCell id="1" parent="0" />
        <mxCell id="FMmth3AjqtejWKc27fLs-55" value="Organization Account 1" style="points=[[0,0],[0.25,0],[0.5,0],[0.75,0],[1,0],[1,0.25],[1,0.5],[1,0.75],[1,1],[0.75,1],[0.5,1],[0.25,1],[0,1],[0,0.75],[0,0.5],[0,0.25]];outlineConnect=0;gradientColor=none;html=1;whiteSpace=wrap;fontSize=12;fontStyle=0;container=1;pointerEvents=0;collapsible=0;recursiveResize=0;shape=mxgraph.aws4.group;grIcon=mxgraph.aws4.group_account;strokeColor=#CD2264;fillColor=none;verticalAlign=top;align=left;spacingLeft=30;fontColor=#CD2264;dashed=0;" parent="1" vertex="1">
          <mxGeometry x="660" y="100" width="260" height="140" as="geometry" />
        </mxCell>
        <mxCell id="FMmth3AjqtejWKc27fLs-18" value="Stack Set&amp;nbsp;&lt;div&gt;Role 1&lt;/div&gt;" style="sketch=0;outlineConnect=0;fontColor=#232F3E;gradientColor=none;fillColor=#DD344C;strokeColor=none;dashed=0;verticalLabelPosition=bottom;verticalAlign=top;align=center;html=1;fontSize=12;fontStyle=0;aspect=fixed;pointerEvents=1;shape=mxgraph.aws4.role;" parent="FMmth3AjqtejWKc27fLs-55" vertex="1">
          <mxGeometry x="39.47" y="68.72000000000003" width="40" height="22.56" as="geometry" />
        </mxCell>
        <mxCell id="f5sbZfVMmakPh9GxGSuK-1" value="Custom Resources&lt;div&gt;Stack Instance&lt;/div&gt;" style="sketch=0;outlineConnect=0;fontColor=#232F3E;gradientColor=none;fillColor=#E7157B;strokeColor=none;dashed=0;verticalLabelPosition=bottom;verticalAlign=top;align=center;html=1;fontSize=12;fontStyle=0;aspect=fixed;pointerEvents=1;shape=mxgraph.aws4.stack;" parent="FMmth3AjqtejWKc27fLs-55" vertex="1">
          <mxGeometry x="180.00000000000006" y="60" width="41.06" height="40" as="geometry" />
        </mxCell>
        <mxCell id="FMmth3AjqtejWKc27fLs-21" value="&amp;lt;&amp;lt;deploy&amp;gt;&amp;gt;" style="rounded=0;orthogonalLoop=1;jettySize=auto;html=1;" parent="FMmth3AjqtejWKc27fLs-55" source="FMmth3AjqtejWKc27fLs-18" target="f5sbZfVMmakPh9GxGSuK-1" edge="1">
          <mxGeometry relative="1" as="geometry" />
        </mxCell>
        <mxCell id="FMmth3AjqtejWKc27fLs-54" value="Organizations Management Account" style="points=[[0,0],[0.25,0],[0.5,0],[0.75,0],[1,0],[1,0.25],[1,0.5],[1,0.75],[1,1],[0.75,1],[0.5,1],[0.25,1],[0,1],[0,0.75],[0,0.5],[0,0.25]];outlineConnect=0;gradientColor=none;html=1;whiteSpace=wrap;fontSize=12;fontStyle=0;container=1;pointerEvents=0;collapsible=0;recursiveResize=0;shape=mxgraph.aws4.group;grIcon=mxgraph.aws4.group_account;strokeColor=#CD2264;fillColor=none;verticalAlign=top;align=left;spacingLeft=30;fontColor=#CD2264;dashed=0;spacingTop=0;" parent="1" vertex="1">
          <mxGeometry x="120" y="40" width="410" height="440" as="geometry" />
        </mxCell>
        <mxCell id="FMmth3AjqtejWKc27fLs-60" value="S3 Bucket Contents" style="fillColor=none;strokeColor=#5A6C86;dashed=1;verticalAlign=bottom;fontStyle=0;fontColor=#5A6C86;whiteSpace=wrap;html=1;container=1;collapsible=0;recursiveResize=0;labelPosition=left;verticalLabelPosition=top;align=right;spacingLeft=0;spacingRight=-110;spacingBottom=-20;" parent="FMmth3AjqtejWKc27fLs-54" vertex="1">
          <mxGeometry x="140" y="200" width="250" height="200" as="geometry" />
        </mxCell>
        <mxCell id="f5sbZfVMmakPh9GxGSuK-5" value="Custom Resources&lt;div&gt;Cloudformation Template&lt;/div&gt;" style="sketch=0;outlineConnect=0;fontColor=#232F3E;gradientColor=none;fillColor=#E7157B;strokeColor=none;dashed=0;verticalLabelPosition=bottom;verticalAlign=top;align=center;html=1;fontSize=12;fontStyle=0;aspect=fixed;pointerEvents=1;shape=mxgraph.aws4.template;labelPosition=center;" parent="FMmth3AjqtejWKc27fLs-60" vertex="1">
          <mxGeometry x="64.00000000000023" y="40" width="33.34" height="40" as="geometry" />
        </mxCell>
        <mxCell id="FMmth3AjqtejWKc27fLs-40" value="Bucket Policy" style="sketch=0;outlineConnect=0;fontColor=#232F3E;gradientColor=none;fillColor=#7AA116;strokeColor=none;dashed=0;verticalLabelPosition=middle;verticalAlign=middle;align=right;html=1;fontSize=8;fontStyle=0;aspect=fixed;pointerEvents=1;shape=mxgraph.aws4.policy;labelPosition=left;" parent="FMmth3AjqtejWKc27fLs-60" vertex="1">
          <mxGeometry x="210.00000000000006" y="91" width="20" height="17.17" as="geometry" />
        </mxCell>
        <mxCell id="FMmth3AjqtejWKc27fLs-29" style="rounded=0;orthogonalLoop=1;jettySize=auto;html=1;" parent="FMmth3AjqtejWKc27fLs-60" source="FMmth3AjqtejWKc27fLs-40" target="f5sbZfVMmakPh9GxGSuK-5" edge="1">
          <mxGeometry relative="1" as="geometry">
            <mxPoint x="24.258158937772578" y="172.5" as="sourcePoint" />
            <Array as="points">
              <mxPoint x="220" y="60" />
            </Array>
          </mxGeometry>
        </mxCell>
        <mxCell id="FMmth3AjqtejWKc27fLs-33" value="Node.Js&lt;div&gt;Lambda Package&lt;/div&gt;" style="outlineConnect=0;dashed=0;verticalLabelPosition=bottom;verticalAlign=top;align=center;html=1;shape=mxgraph.aws3.android;fillColor=#8CC64F;gradientColor=none;aspect=fixed;labelPosition=center;" parent="FMmth3AjqtejWKc27fLs-60" vertex="1">
          <mxGeometry x="63.17" y="120" width="35" height="40" as="geometry" />
        </mxCell>
        <mxCell id="FMmth3AjqtejWKc27fLs-39" style="rounded=0;orthogonalLoop=1;jettySize=auto;html=1;" parent="FMmth3AjqtejWKc27fLs-60" source="FMmth3AjqtejWKc27fLs-40" target="FMmth3AjqtejWKc27fLs-33" edge="1">
          <mxGeometry relative="1" as="geometry">
            <mxPoint x="327.4949999999999" y="150" as="sourcePoint" />
            <Array as="points">
              <mxPoint x="220" y="140" />
            </Array>
          </mxGeometry>
        </mxCell>
        <mxCell id="FMmth3AjqtejWKc27fLs-3" value="Cloudformation&lt;div&gt;Stack&lt;/div&gt;" style="sketch=0;outlineConnect=0;fontColor=#232F3E;gradientColor=none;fillColor=#E7157B;strokeColor=none;dashed=0;verticalLabelPosition=top;verticalAlign=bottom;align=center;html=1;fontSize=12;fontStyle=0;aspect=fixed;pointerEvents=1;shape=mxgraph.aws4.stack;labelPosition=center;" parent="FMmth3AjqtejWKc27fLs-54" vertex="1">
          <mxGeometry x="58.760000000000005" y="80" width="41.06" height="40" as="geometry" />
        </mxCell>
        <mxCell id="FMmth3AjqtejWKc27fLs-7" value="Custom Resources&lt;div&gt;Stack Set&lt;/div&gt;" style="sketch=0;outlineConnect=0;fontColor=#232F3E;gradientColor=none;fillColor=#E7157B;strokeColor=none;dashed=0;verticalLabelPosition=bottom;verticalAlign=top;align=center;html=1;fontSize=12;fontStyle=0;aspect=fixed;pointerEvents=1;shape=mxgraph.aws4.ecs_service;fontFamily=Helvetica;labelPosition=center;" parent="FMmth3AjqtejWKc27fLs-54" vertex="1">
          <mxGeometry x="200" y="80" width="32.52" height="40" as="geometry" />
        </mxCell>
        <mxCell id="FMmth3AjqtejWKc27fLs-15" style="rounded=0;orthogonalLoop=1;jettySize=auto;html=1;" parent="FMmth3AjqtejWKc27fLs-54" source="FMmth3AjqtejWKc27fLs-3" target="FMmth3AjqtejWKc27fLs-7" edge="1">
          <mxGeometry relative="1" as="geometry" />
        </mxCell>
        <mxCell id="FMmth3AjqtejWKc27fLs-45" value="&amp;lt;&amp;lt;create&amp;gt;&amp;gt;" style="edgeLabel;html=1;align=center;verticalAlign=middle;resizable=0;points=[];" parent="FMmth3AjqtejWKc27fLs-15" vertex="1" connectable="0">
          <mxGeometry x="0.0167" relative="1" as="geometry">
            <mxPoint as="offset" />
          </mxGeometry>
        </mxCell>
        <mxCell id="FMmth3AjqtejWKc27fLs-28" value="" style="rounded=0;orthogonalLoop=1;jettySize=auto;html=1;" parent="FMmth3AjqtejWKc27fLs-54" source="f5sbZfVMmakPh9GxGSuK-10" target="FMmth3AjqtejWKc27fLs-50" edge="1">
          <mxGeometry x="-0.2" y="-89" relative="1" as="geometry">
            <mxPoint x="290.6286821244551" y="156.5" as="targetPoint" />
            <mxPoint as="offset" />
          </mxGeometry>
        </mxCell>
        <mxCell id="f5sbZfVMmakPh9GxGSuK-2" value="Cloudformation" style="sketch=0;points=[[0,0,0],[0.25,0,0],[0.5,0,0],[0.75,0,0],[1,0,0],[0,1,0],[0.25,1,0],[0.5,1,0],[0.75,1,0],[1,1,0],[0,0.25,0],[0,0.5,0],[0,0.75,0],[1,0.25,0],[1,0.5,0],[1,0.75,0]];points=[[0,0,0],[0.25,0,0],[0.5,0,0],[0.75,0,0],[1,0,0],[0,1,0],[0.25,1,0],[0.5,1,0],[0.75,1,0],[1,1,0],[0,0.25,0],[0,0.5,0],[0,0.75,0],[1,0.25,0],[1,0.5,0],[1,0.75,0]];outlineConnect=0;fontColor=#232F3E;fillColor=#E7157B;strokeColor=#ffffff;dashed=0;verticalLabelPosition=bottom;verticalAlign=top;align=center;html=1;fontSize=12;fontStyle=0;aspect=fixed;shape=mxgraph.aws4.resourceIcon;resIcon=mxgraph.aws4.cloudformation;" parent="FMmth3AjqtejWKc27fLs-54" vertex="1">
          <mxGeometry x="340" y="80" width="40" height="40" as="geometry" />
        </mxCell>
        <mxCell id="FMmth3AjqtejWKc27fLs-19" value="&amp;lt;&amp;lt;trigger&amp;gt;&amp;gt;" style="rounded=0;orthogonalLoop=1;jettySize=auto;html=1;dashed=1;dashPattern=1 1;" parent="FMmth3AjqtejWKc27fLs-54" source="FMmth3AjqtejWKc27fLs-7" target="f5sbZfVMmakPh9GxGSuK-2" edge="1">
          <mxGeometry relative="1" as="geometry" />
        </mxCell>
        <mxCell id="FMmth3AjqtejWKc27fLs-65" style="edgeStyle=orthogonalEdgeStyle;rounded=0;orthogonalLoop=1;jettySize=auto;html=1;entryX=0;entryY=0.25;entryDx=0;entryDy=0;shape=flexArrow;width=5.333333333333333;endSize=3.9106666666666663;endWidth=6.488888888888889;" parent="FMmth3AjqtejWKc27fLs-54" source="f5sbZfVMmakPh9GxGSuK-10" target="FMmth3AjqtejWKc27fLs-60" edge="1">
          <mxGeometry relative="1" as="geometry" />
        </mxCell>
        <mxCell id="f5sbZfVMmakPh9GxGSuK-10" value="S3 Bucket" style="sketch=0;outlineConnect=0;fontColor=#232F3E;gradientColor=none;fillColor=#7AA116;strokeColor=none;dashed=0;verticalLabelPosition=middle;verticalAlign=middle;align=right;html=1;fontSize=12;fontStyle=0;aspect=fixed;pointerEvents=1;shape=mxgraph.aws4.bucket_with_objects;labelPosition=left;" parent="FMmth3AjqtejWKc27fLs-54" vertex="1">
          <mxGeometry x="60.06" y="230" width="38.46" height="40" as="geometry" />
        </mxCell>
        <mxCell id="FMmth3AjqtejWKc27fLs-50" value="Bucket Policy" style="sketch=0;outlineConnect=0;fontColor=#232F3E;gradientColor=none;fillColor=#7AA116;strokeColor=none;dashed=0;verticalLabelPosition=bottom;verticalAlign=top;align=center;html=1;fontSize=12;fontStyle=0;aspect=fixed;pointerEvents=1;shape=mxgraph.aws4.policy;labelPosition=center;" parent="FMmth3AjqtejWKc27fLs-54" vertex="1">
          <mxGeometry x="56" y="320" width="46.58" height="40" as="geometry" />
        </mxCell>
        <mxCell id="FMmth3AjqtejWKc27fLs-12" value="AWS SAM&#xa;Stack Set template" style="shape=image;verticalLabelPosition=bottom;labelBackgroundColor=default;verticalAlign=top;aspect=fixed;imageAspect=0;image=data:image/png,iVBORw0KGgoAAAANSUhEUgAAAX0AAAF0CAYAAADPdumZAAAAAXNSR0IArs4c6QAAAARnQU1BAACxjwv8YQUAAAAJcEhZcwAADsQAAA7EAZUrDhsAAIIDSURBVHhe7b0HgBxJefb/TJ7ZnFerVQ53pzuddNLlHICDI5tobGOcwfZnG4wTDvxt44w/J8KHscEmGDAGDAYMR7zA6e50UeGkU44rraTNu5PT/32qu1ej1YbJ0z1Tv7vSTPf2zHRXvfXUW29VV7uyAjQajUbTELjNV41Go9E0AFr0NRqNpoHQoq/RaDQNhBZ9jUajaSC06Gs0Gk0DoUVfo9FoGggt+hqNRtNAaNHXaDSaBkKLvkaj0TQQWvQ1Go2mgdDLMGjsTTYJpCb4RpJL7XI2ch0uL+DpkFftc2mqjxZ9jT2Z3gEM/Qkw8yQQnTR31gnU+mAP0HY/sOL9QOhKY79GUwW06GvsRSYK7HspMCaiLw6xcu5Vqgcv34RVjrWOKS1p2VuADV+or2vU2BYt+hr7EHkB2LXZEEMPdzSACLL6UfiDvcDWw9LQtRn7NZoKoUVfYw/SU8CT7YbOuxvQ401LNfS1AjdKPmg0FUSPJGnswZ4bjNdGFHzCnk1iGjj4RmNbo6kQWvQ1tWfsi8DUIRG+Ro5py7VT+M9/BYgfN3ZpNBVAi76m9gz9DeAz3zc6rJEnf894r9FUAB3T19QWztZ5vMnwcvXsFWNgl9yiq6WmMmhPX1NbYodE+OVVC/5FOJsnEzHeazRlRou+prZMP6WtcC5s/6afNd5rNGVGh3c0lScs3nzkCDDzAjC1S7b3yfsXxaONAn5x81t4kPb0FayObAS58kTGA3hbJX82SboWaL1GXiU1XwkEV6jDNZpC0aKvKR/Z9EVhH/0+MP4oEBsScY8DKfk7dT03kaCkFtnQVngRl2QGRZ95Rpg3TCoMJol3KnsCIv7SGLTfBPQ+IHl4tWxfIX/QaBZHi76meNIRYHovMPId4NxXxIM/ACRlH2PS9FatsI0l8HPj9rQ80S7l6WsrvAiziaLPfJyTZbMDvXyxEhsDNgT+NukNbAf6Xg30vMJoCPRYiWYOWvQ1hRE+CFz4X2D4S+LRPw/Ew8Z+Cjz1RaU8hYaWp0X/cph9C4n+fMxtCKxGN9gBtN0ArHgH0HkXEFolOzWNjhZ9zeJkxY2c3AkMfUbE/pvAzAnDs1RTLK2Up8jPhZanRf9yChX9y5DMZH5aiWEi3gfRukl6Aa8zGoHmq2SHphHRoq9ZmOGvAHt/DohMGuIzK/RFivxcaHla9C+nZNGfB1ZzNtZMJNQF3PIjyXtpCDQNhRZ9zfykY8CDIUOMVeimXOqTgxb9+amE6OfCKs/vblkF3CM9N01DYQ21aTSXsvPunDBOJZRHUzNYnizXqZPAvncb+zQNgxZ9zeUM/QdwfqchDBVxNTU1h8LPOP+Rf5RehZS1pmHQ4R3N5XzD9AQr7eHr8M78MNsrGd7Jhev4t6wD7j5i7tDUO9rTdzhssw8fPoyZmRlzT4k88zpDgHVIpzGgAkweFY//L4ztEjl//jxOnNDjBHZGe/oO5tSpUzh06BDS6bRK/f39uPbaa+H18k6dIpg5AHz3KuMu2WqIvvb056eanj6hBHD85mWjgL/L2FcgU1NT2LdvHyYnJ8V0XAiFQti0aRN6enrMIzR2QYu+A2HF2rVrF2KxGHw+n6pkLMZMJoNkMol169bhiiuKuCX/+31A/IJ4f1Xy8rXoz0+1RZ+kpAAGXgVc/w1zR37Q5nbv3o1z584pW3S7jeCBZYsdHR3Yvn27+pvGHmjRdxCsSBR7VjC/3z9bwXJhcaZSKfW3bdu2oasrD88tGQP2vRc48VHx9KqlMoIW/fmphehTBngT193PAm3bjH1LcPz4cRw8eFDZmsfjUc5HLpYjkkgksGHDBmzcuNH8i6aWaNF3CAzlHDhwQL2fr4LNhcUaj8dVyGfLli3qM5dw9vvAsc8BR/8DmIkDg7JPOWNa9GtOrUSfIZ7QcuCGHSL8q4398xCJRPDcc88hHA7P9jQXw3JEaIM33XQTWlpY4JpaoUXf5rCyPPvss5iYmJjtIi9VySxYtIz1w+XBtVeuQH/km8DhL4jgP2mILDsK/Ko2SUp4q6UwJlr054fFUG3RV0ghsBxGJPG3178NWPPjwMrX8o8KjiEdO3ZMjRvRDguxRSZ6/atXr1bxfk1t0KJvY86ePYsXXnhBVSx2ofOtYLlYxZvMeNAffhBbR//CEBIVGZI3fN8nqRZWwN/Uon85LJOaiD6RguDvnjfeWss2xDf8JJ4JvQfhqXERfKPXWKw90pEJBAIq/Nja2mr+RVMttOjbFCt2X6h3vxAs5bS7Cf70KLZc+B10RPcagtIm/zTxAHVYdeFvatG/HJZLzURf4G9OSYpIoYjoD7W9Cvu63gd3Ngm3K1sGWzS8fvZC169fryYeaKqHFn2bwXjpM888o+Lx+cTuC4EFnYUPGZcXG8c/gtVTnzG8/Jooi6BFf35YHLUUfRYGy+McsLf3AzjT+mr4MpNqfzlPh9JDr7+zs1PN8JlvYoKm/GjRtxHDw8PYu3fvbCinnIKfSxZupFzN6Ev+AFtTv2NU8Ar91qLwd7XoX05NRV8KQv5PutvwlPcTCHvXwJudqdhpUH7o8VvhHj3IW3m06NsEa4Asn9kQ5YCFnkYzmrIncH3inQhkxqov/DwJLfqXUyvRN6Vg0rMZz/o/jAz84h7EK34KlCBO7SQc4F2+fLl6r6kMWvRtQG78vhqCb8GCz4jqsmLfEH8XWjMHTJGp0jlo0Z8fZn+1Rd+UgbPeV2Gv70/gQZT9QbWvWlD46fWvXbtWzevXVAYt+jWERv7UU0+pW9itKXC1IAOv6EsQWxO/hb70w8bOapyLFv35qbbomxJw1P+LOOz5ZfgwLT9rTtupMpQjxvmXLVumlhTRlB8t+jWC85V37typllIoeq2cMsI4fwId2JJ8HwZS/2vsrLTwa9Gfn2qKvln9D/jfixOenxLBn5SfrG1hWMLPAd4bbrjB3KspF1r0a0A0GlUePtcmuexO2RrCuRlJEf4NqX/CuuQnjZ2VFH4t+vNTLdFn1Zfv3+37awx77hfBn6jozxUCZYmhHs7jv/nmm829mnKg50hVGS6B/Pjjj9tO8Ak9PB/Gccj7Hhzz/ayxU/sE9Ykp+Lv8f41znpfaSvAJQ52sH9PT0/jRj35k7tWUAy36VYSCz5AOsZvgW7Di+zGCg97fxDG/Fv66ZFbwP4jz7pfCiylbCb4FhZ+hT96z8uijjyrvX1M6WvSrBG+6evLJJ9V7u9+EMiv8HhF+7fHXF2Y5Pu//OxH8+2wr+LnQQaLw79ixw9yjKQUt+lWAoZynn35avXfKXYeW8B/w/hbOeF9n7NTC72xYfvL/7sBf44L7bkcIvgU9fo6FWY6Tpni06FcYdknpodgxhr8UFIQAzmOP/wM4632FsVMLvzMxBX9f4PdxzsYhncWg8HN6M1ed1RSPFv0Kw0FbTj9zmuBbKI8/O469vj/HhHuLsVMLv7Mwy4tjNKc9b3Kk4FvwBsaRkRG1XImmOLToV5Cnn3pKxfKdKvgWvFHHgzCeDnwcMXe/uVfjJC547sJB33vgc7DgW/CpcUNDQzh69Ki5R1MIWvQrQfIs9j/y7xifnBHBr/2NV+XAjbSkFHb6P42sS8xGe/vOQMop4l6BZwMflh7bmAh+fZQbhZ+PauTyJZrC0KJfbg78Lc58+S04ldoIr5crZZr7K0RG6nAiDaSrcNc8b91KuNrxlP9fjB1a+O2NWT47Av8FX5bz8CtbXvy5lNhhUuyx0qbB6ZxcmXPPnj3qsY2a/NGiX06+dQMiO96PvQN/D587VdFuNOsUKxgfanHbyggGWpOIpaRaV7Cy8Xq4ENeEeztOe99k7NTYFMMQ9vj+XP51q55aJaHzkcy4sLErgeuWRZVtcl8lofBzNtwzzzxd8d+qJ7Tol4ORp4FPiSQOPYMn134L3mysol6V8qjSLrQH0rhrVRgtwTSu7o9ic19UvP5qCH8EQ56Lz03V2BDTBoZ8r1PlVUnYy6Rd3DgYxuquOHpbU7hd7JIOCcW/krhcbiSka7H78W/JNUfNvZrF0KJfKs//MfDfN4oKA8+s+ijSrqBUgMotSWt1oZe3JnDjioh4OrJDPCymFR1J3LIirCphJT0fDuym1TMWNXYm4wqIwbiVIFcCyxZDPvY2Z9AZkt4ERV5Skz+De9bMoFVeGe6pFAyfejxuXIg24/iDvw+MPmb+RbMQWvSLhRb/4L3AU38C+MSj6voxjARvh0e8jUpXsvXiTV2zLCY7uNf6NQo/0N6Uxh2rw+LdZZX4V0L7uSKnFzPmlsauuLN8AEpSyqv8FmnYogsd0tukoxEQ4UeWv2Mm9R64WTz+vuY0EhUMPfKXvJ4sDvtfj6kH3w7s+2vjD5p50aJfDOGTwJeXA6ce4m2rSHrbsbf7j+HPjFegehnQc6fgX90bw7ruuOFRXfZrsi0VMejL4HYR/pBXPPIyCz+/i0/cWpH6krFDY09M01iV/oL0O5uNjTJB8Wb8fllLAjcMSm/TJTtMkb8U2iOwdXkYK9sTFQ09Mpzqcvuwp08E/7HfAx5+o/kXzVy06BfK2R+I4K8GpoeV4FMFn132IfM5opWxaAo+07aBKAY7kkrYLxf8HKQC0vO5ZWUEzdIAlEP4+XnO1k+iHT2ZR7A8/Q3jDxqbYtjHpsRfqrn5FH720Eq2A/kCCv5ASxLXsrepWMQW+Tc5flN/DBvFWeFnKyX8fCJExLcW+5f/LnDgK8BXrxRPqbLjGU5Ei34hHPoE8L8vofpxNFO9nmp/Myb8W+HJJtQh5YYVRAn+sgh6pKLN7+HPgwg/4/03ryhO+HksRYLPSU25WsW7D0nDNo11qY9je/zXjYMqPR9VUxpm+dwZeyX6Ut+DK5sU8W9XDUBGmoJCGwHaIkM6y5TgR02DyscGKPyQHqoh/OyxVkL4eSbebBinW6ROdmwFRg4CX+gEJl4wDtAo9ENU8uX5PwKe/jMVv5f+rLLauKcLj6z8LrwZPl6u/NloVDJgu3j43S0pqTj5VLA5SNc7I5/beboJ4aRbGoKFq6lxBR4l9FmXD77MCILpY+hKPoo+PIk2HJXPqlZHvqSIc5kLf1A/ROVymLXlfIiKWcUTrjaMZ9Zi1HWbOCq3iv2uRFr2ucRhoZdMZV7QNkxb7Bc73CIOiBHOKfTk5EsYe78QxNHxAHzilFTCb+DjP31SJ+88/UrDSWI+PvAdYPnL1N8bHS36+fDELwN7P2aEc2ilzDL5/5mB/4eJwHVix1Y3t3xYleya3hiWq5AO9xZZQ0T40yL8j59sRjztgienf2cUvkcqf4DGIJ7SBLoSP0BH4mG0pnajzR2FW123ebA6hTLVVH6fFv3LYfaW/clZksFW+Yn/EBeNn3b3Iuy9FqOB+zHlvQEpNxuAjDQAcTno0gaAM3B6mtLYtjws38O/FHtichJif/vPB3F60gcvnZCyXaMBLzPlasGaqc9g4+g/GafK2Zz3f1a6Gz/JQxoaLfpL8ciPAwf+0xCnHMG/0HwPnu37J/gzo+Wrlyb8iaSI/BVdcazpltpZiuBbiPDHEyL8Q9K1l0rL+c0Z46Lgy46iO/4ddCf+F63JgzwUbunRBC2xL/sVmtDytOhfDrO74o9L5HNoDfF3iX0l3V7M+LbgQuB1GPffLU5AE9xZ3mCYEIchixY/Z+lY8fFST4oGJp3nMyGMRLzwyNeVX/hd0oi14K7Tr0AgNWLspG92858AW99vbDcoWvQX4+G3AAf/66LgEzO7HlnxbTEqqRiqZpYPS/BXtKVwNbvR4pmXXslMpDs9HfNj59luqegRdCUfRn/sS2gTj55CrzRGKmPIL70BLhlUacvg92vRvxwWd9UejC5amMwiIQ0Ab/ngUFVKbGDcdw/OBd+ESe/18EnX8O6VF+RcxDCVl18OjAJ/8nQzZhKLhx2Lhb3X9vhe3DD0S8aFEbZbt/0psOWPjO0GRIv+Qjz0JuDwly+GdAizSuz+SNc7cbTjl+DLTBn7ywhDOrzT9sZV0o0uq+DLhbj8SCamMHr03xGa/hr80pXnT8hPCi4ExLtnqhq0PC36l8Mir5bom3CgP8pOpXj1/EnRYIbfEeYgfu870L3ytfB4xDgyHMAtk6MjnkZWDPCRk81Ic+JBma+VJpVwd+Km4Z9DZ/RZuSj5AdZhCv+tIvxbG1P4tejPx5O/DOz6GBCU97n9TsmqlKcFDw9+RypFQipHebOOs3T4c/eumTb3lKEWuOUixOMJjz+HxNnPwD3xtPLi6bCxevMKfOIFhdgmlOHnCoI/rkX/clgOVRZ9i6R4/BR/A87vEaRBoDOCnpfBP/iLaGrul30xSbMHFo8I/3TcIx5/U0XCPJxmzJvU7jn+MsPb5w/MCn9jhnq06M/l2fcBT//VvIJP43+h7/042/xqNTWsnPDrOch69+oZEWD5oVK70Z4m0YwgIsPfQPLsJ+GNnoOLIRvavKkk/DckouutRihnPvibWvQvhwVTI9G3iMSNBoBVQFUD0/6zsi/Vdi38K34JLV3bZZ/UgwwHfkvAncHQhB97L4TgL/OMHppV0t2OzSN/hOXT3zS6MKoSyF8o/LeI6F8n4t9AaNHP5ehnge+8HWpZmbmWJ9kU8/bi0RXfhDcTEbMpb7bFUy51t+3KTt5tqyyzOCj2rhZETn4S6aF/VjbOOL3Vd2ZpMzGMowZqawmzUIv+5bCoaiz6/N20/H445/6r2VORLikjPGl/O3yr3oOW/gdkY0r2FzuLTQpfbHTP2RCGZ7yq51lO2F/hmlgvPXrzRW9f/UF+l6d83yeBDT9r7GsASlCXOmPsOYDrdiwg+PRyDnW8W1pJTmUrr0IxntoZTGOlWl5hzm/ni7cJKW8fpk59AdM7bkZWBJ8P7HJ55ftE8NUlSOKltYZsIPgaeyO2wqm9bVIffAwH0su3zF7syeVzifMziczhP8b4zvswc+ERZH298iG24oUiRinff21/FAFPVtlpOeG9JRmXD6c736iuy/zHqAzs0X/v54DTXzf2NQDa0ycZcVv+VSyb9jrfaJJkUdQ7gB2DX4VbLahWviyzxPgl64qM43uCSHtaEN7/GWROfRRu8ZqVZ0/Mxou/wTMOVnugdil4UtrTvxwWW609/TnQMWHIRzkOsj3rF5nywUYhHWmC94o/QMvql8KVHJeDk+pveePKYirmweOnmuCnw1LGazfuLvfgJSfumHMBAi+Kef3654Gurca+OkZ7+uQ/O4xZOgsIPr2Qwx2/KoZjDX2WB3411yLZLB6OURIFWLnbj6y/C9OnHsbUN+8G9n0Unmb5Bqv7KslqUHhZreLR2ErwSfmysv4owBSqAb3+VvH6g/T6ZdvU+llbo915vRFkn/oDTHzn9YiMHhaD65G/0SDzRL6zLZTCqo6kMXBcRtRy4O5mDLc8YNpdjvGxgrD+fXM7kLCcr/pFi/73XwWEZ8SqF65lcV83RprvhCdb4oDVHCjI3WLk/W3WHbd5wErk70B49BAmvvdWZJ/7M+lmJzhBR/bzGozrYKWkWdO7bwlJQdutpHlyPFU5t9z6pxGYH1wYk692yhs5l4A4Ry2cEMZN2Z4Vf+4JiviLHXqjZ5Ha8X8w/qNfRzQWFrtsM/6+JHKMOEGbemMVCfNwuZRDnb86f76yfvAGmW9eZ2zXMY0t+gf/BTjyv4aXvxBiB6fa3oqUCvaXz/2wKgzjmPnNx5e/+1qQiMcx8cQfqErljZyGi947vS2pcDRkZc/yD3exctrOuyfqJCW1S6qUBTI7KZzFJDZEtYYzqlolWXllIyyvX8X6ZXtW+FmW5hgS7dI78hQS338zJnd9RN0dy1Dk0rDggGv6Y0hKvbjYqJSOC2lEvCsx1nzT5XnKCsM8Hz0KPFrfSzU0bkw/fAL43BojpswCnw/JmqzLjUcHv6GMtlx33zLH05LWdiSwvofznZdQPo9fmhs/Zg79JzKHPgYP2x4rjEO43SHfK40XY6u2mJmzELQ2JsbxqQGVsD7JFi4x8Of/lkVTPjqTA2PXvZKXP/+T8iW17umzeDkzmOvG2NQ9S0mV4Lx+pSJyji4+W4fnzPM1pSXLjmygCd6t70fL4O3iUUvGLnqDl3zOncUzp5sxEfNcslZUqaRdfnTGnsf2YfH4mb9z6z7PmR36uz8OXPGLxr46o3FF/yvrgMljhmeyENK/HG69H3t6/lK6hlOmD1I67LZ6xajvWm09fWqBb1beRxuio/sQe/7P4JkRz57eSK6hsvQkZXuNTd5kRQ/MtrCBYkNrebGVQBrEiGRt873F/8DYd1zo7JI30njUFBa1zQZ150IFiYpQqji8nKdrTF55rrnnK0afkbzM9t+Kpi3vhb9JMje12L0uWcRTbjx0oqWsc/dpEUl3J+46fT+CqfNyjvN8MSsoD3zDIaBtg7GvjrCp/1Bhnvkd6caJ4C82xkRLlv9PtL5dPOvyPQKRX0tvcmOX1BKV+wt8sycgvQEfJnZ/CInH3mWEcuYKvkDbzMh18C5bTsW0teDzZHnNDKHwfQUpdQzjZ/9MTpCh6FrDfLLOo8J5Viw0SfaoVO9SbDE7X967XWoRP8+FxxH94ZswffxBsVtp+d0LG2zAn8HKtqTqFZcL1h53NoGTrT9h5Od8Pi8Hdrn7uy8xtuuMxhP9seeB5z64eFjHZCa4DmHfOjGU8rl7tKWQL4OBNi50Yuy7FDknNVB7GNM/fBvcx/4LbjZO89yjruxVUlDqTrNczxKXU1vMc1VhHTufp8nXHpF/JuSEF3MMqkVuQ8lkU/yi382cNMAwo5znZadKA5WeNS8nu+uvMbnj15GITss+Xtxc5FipH5t6ompdnvm0uVjc2RiGm1+xuB2y3MdPAjvNBwbVEY0n+o++1SjQpRRSDO5M82vUTR3lmqZpefl8sLlhcXPOQVyhjDuIqd0fRWrHr8CTGJvfu2eFksS9TVLBAlXwnEuG58eG1q5jDfPwy38p/8ynR9WGecexCTv34kwYf2+RnolPXi07vQxroHdsNyIPvVV5/VkvbzCZ28JyKmgWq9sTZfX2OTYX9S7HaOjGhesN6xxtVXraGN9r7KsTGkv09/09cO7g0t4bLVVy5lzzy5VXUC5oX03SZR1oZXDT2DeLrwXR8CQmH/pp4MjnjV4vu5nzCD5RlUuEQK2bY8cZOrnwnGlpTmiccvjYf8vpTsoJ28HbZ76xl0TsnIc8N7FLji2FTLucV/hNr98jH8jQ69/5fiQ5Kjx3hk/Ghat64uIsldfb5zOth1reYmws9MXqHOX1wTuN7TqhcUQ/Pg4885t5hXVouOPBbYh5esTXWGyWQf7QrpSX32mtTGieg8uNrK8d00e+gfgP3wpv5MzFaZhzsGxTdaMZzuGG3QWf8Lw5DdKB1vYrH5R/OFvXDlCAaL8LaJRtoGHKudJOW0w7pe3Oe9pWrH/4Ucz88G0IX3hBbJqj/Jb9y6sng+WtZfb2s0mMBm9AeqllI2izMxPG41LrhMYR/SfeCfUYUHrPSyHGdbb5lWJuCz8ztFBor0FfFn3NOV6+m1MxfZjY+f8hu+v/Gg8umS92z8R/ZDc9KN5wpeA+u4dLeI60Mjpw1nU7iI99Rf6xpiDWGuYfG0+ah53zkudHW5Zz5IA6bw5U0y5le16nmvbOtXzSM0jteDcmX/jEpeGetAsbuyn65fP2WbeTnk6MBRcJ8RCeG+vYU38GJK3Zds6mMUSfT8M//F/5ecW0KinnC033ijdQnjtw+ZX0Upa1JOFWk+zlB7zNiM2cx9R3Xwfv2R/CxZurFvLuJbGtotc0uwIh9xNek/XejvDcLKFyKO//Z7kIO8T2CcvfCd5+zjmy6Jul0ed6Oty1oHDT6xeBdR36DCYf/nkkWGlUuMeFYCCNzmCqrHfperIRnGl5vbGxWGvCesl8/979xrbDaQzRf+xnjCudR1QvQ8p+KrgJSXeLmBoFujzQgV/F5RayYj2+doSP/Q9iP3w7POmo8nLmg3ZIU/TKRxi/v6yTwm07e/o8eea7Q718iw98Qv6hk8eKX2uYj3b39nleluhb5yivQdnHiQdqU7atP12C1FGGNz1TRxD5zqsQGTsi9aNVxfbXdSRE9Mvn7TPEMxHYgkw+dwqzjh5/XLzBJ8wdzqX+RZ+FdPbpgirshdCdYpAeVa/KAb2TDvFUAkE30tKYTDzzF0g/9w/g0+cWCjdZlSIg3WSrolyGnQWfqAuQVK6MLIByCYPFH31MvpBiawdoy3YveyrL3J61ZCF7qtbaPdyet5zonHGQV15SD70LE4e+Ktfbg562tOwrnyNGpy7mWYZJ/5WGrS4Fy/+RNxvvHUz935H7jetFxZ9VRrQkzIo0sGPllxDz9ovdlj4/n1+ZSLtw46oM2jzTmP7RO+GdGRYjXvh8+BmmJhHMBR8oQdvnTTscZLRjCfKcmHhXax5ZX1ZEcGIx4Lq3Z9HO0LC524LPGTg6BAyPmjvygDHp1FPyTRzXL5/uFA9Nc1ISL67a+ZsPPCee3wJLSNC+w3HDISILdsJ5IO/27d+Gzrs/hkNDMzgx4Z5v6KsoUq4QVsx8BVdd+BvjPJf60oicz/2fA9a+zdzhPOpb9M/vAP7ndsMrysdCJCvS7iB+uPIheLIxsdvSs4bdUV+wDdcFdyLz+LuMO0VpsQtglQZn5yy45giPYaKg5jNOUQt4fhzM46JqpWdj4TDv+NvzZbWc18QRoPNlhZ3Y378bePcvyhfaYfVdXpfNl2dQT6Wi8C9kxwKXb0hII8rquehlJLPIBEJI3fbfePZ8F7yZcFlEPyPG0JQ6iVvOmIusLfWlbKX84km8zblLMC9SHHXAE+8yusL5WoeU53jwennhh0pXKn5P2tuJZaf/Cq4dIvjW7JwFoODzVNus2Q6Lwb/z++wKs4/d4dKzsTjojY9L4jowc9N5oGMl8MCt8r4Afvcj8g+fq2qXWmPFze0Kna0lzi8UhLFGv5TXou6nzwV3KorgD1+B7pkfIOntkq8uXfU5JTvsXYe4t8fcswT8yekZ49GqDqV+RX98NzCyxxD9fBGjGw3eLOVa+lTNjMsvyYtrjr8dK0a+iCw98kUaH0vw+bCTvOB1FXJt1cSqvHbthZAw8OHfLqyUE0ngbz8tF2eXu3SVTZnv7Yhlo4udn/yNq8JyKjIPW1T43VIzpYG4+sTvYd3ZDyDl6ZDPlFoJ2LsPYMJ/7eLnacFKysZ2568Z2w6kfkX/+febbwpACn00dDu4IFMpcBlmX2oE1x96KdrDu8U4Zecigs8eI2fo5C34NM48vKiaUqMB3LwRAV+3CXj1HeZ2nvzVp+Ufu3j7qudovLUteTb86oZDc3B6UeGXepSUYwfHviQO1TuQle2MeoJQcdBEWd/Hg/Ossb8Q/NDUhHj7/2FsO4z6FH2u133ia0aFWERsL4GWJseHfaukTIu7C5c2k/B0oWPmMWw78jp40xFjqfwFzoE/qUKEYsQLztCZi2WYdhZ9nhcFyY7nx6KwhDIKfOg387QPk9FJ4FP/Ixdml7t0Kap2tQNSwPnR8eFYFllK+FNSr9rDu3DdkdfCnzyjHK1is8GdTWEqcLVhG4v+sAnrM+vfng8Y2w6jPkV/3z8YsxsKq89S8Ffx2cxC4ebD+GLC24eVIx/B1Sffbezj7y8i+PwV3l1rrVGSNyw1u3t4xTtflUOKgrN6Dp+QnGejJB26NRuBu7cZf86X931U/rHDg01oQJazULjJVp7c88sTa00p1pqlhJ8OVSA5jq3H3iyO1o/McE+BlV6gkxf1LJMeRAFrabPszx0ARp42th1Erc22Muz/OzPeWYABiIFN+q4xhLpAOAMg7W7Flad/A2uGPy7v5ev420sJvggP5+EXDL+2mM9VA14Yz8+OjVII+M/vZ/Hm35f3lqcuzsE/vKewQj87CvzbV+VC7eDtswbbuRZbPVKmPFF3n+ct/C5OQRRH6z0YHP2EqofZgjMkIw5bDxLuPAdzCes26+Au563JU3+if+4hIDxhWEyhKJHO/4O0x5S7WcUEtxx7I/omvrdk/N4yYnr3RT+/1q6Cb8HrKqCSVw0RoD/+F+D5g9Izf1a22RuJA9dtB+4s8HnYf8K7dDn0U4ydlRPWYDv3+pg/Rdgrq5ASfnldVPgFOlh0tNYMfxjrz7xPTaJIuwIFmaByxBapt/PC6zr5bbGhAm74sAH1J/ovfsQwtEILUA7vjT4ihrK0hdKYaFjsTnZN/wDbD78czbHjyvDyEnwRH8bxi4LfUWCXuarw/OzYKImAfP+7wPGzxua7/15O1Bo4TwIf/i3zfZ6cGAa+9j35jlrfpUtzs3MtLsFeWZVyV+lcFFP4+ye+g61H34CmxFGpn52qF77URzkDKJg5h6bkSXNPnvAEOfz34oeMbYdQf6J/9EtFi04wcR490UfFe2cX8VK4zW4jPYiUuw2h+BFsOvXLuOrU76mBIHYz8xF8DtgueJftUlgnxetbypJrCa/PbucnAv9//vbiSf3gGfH4n5I3FCTx2LdsdWHzevWnvHnvP8o//MqFi7062N0eSuj5KeHP0+O3hD+YOIstR38K68/+EXzpUeWc8WFIrL9zv4JjAEl3O1ZNfR7ujLT+hcK8P/xJ471DqC/RP/U1o+UtBlqV5Mb2c7+GztizYggdSLmaROSDKoST8rSLuMfRFn5KxP5d2HLsp9E5/YQysqW6hbMevhg/ZyiUBEvMjp50LnY7PxGNh74vDtkJc9vk/R+XgrGWsRC7+UiB3v6RIeC/vy0ftnoMtYDnbmd74PmVGO5j9eJ05nyFP8v5/HLssrGv47ojr8fGod9WTprsVQ2AUa/FeXO1SGrG6pnPY83EZ+SzxucLgvVx7JSjBnTraxmGH74WOPZ1MbICCy4XZof8f6HpVpwL3qOmYDbFDqAl8jyaY/sRSIaVQampmHm6eMxgCn7RIR0LfhEbjW61ZU/Y6BYwHlYVuoDb3pjF43vM7RyOfNmFdWvkDWd7tQJXPZDFgTmNw2KsXyGO3nfFDrjcQK2w7j6mOZZg+hWD58SwGutMCefHqjljrteT39ewwsjPSv645W000INwcBNmmrYiFliL5uQxDEa+g5b4QTPvijy5pHz5hh8H7vq8ucPe1Jfof0IKjV5FsYVnYQq/ghVK4KwevqXB8X7dDDf4M9zOyUFGeSyLVDYu77mvZA+f8HcYjug039sNnhNTryQz32qO5NdzIvbb3zF/hv3Y3cBXPi4FRNEUb/LRJ7K4613G3/LlBx914d7b5E35nqxZGMxrrsNDTNuzFawI5yVZdaYEWDWTZm+eT6Kzvk/VxxzUGlcC/2xEXo05PZdUQ/7ROp9SNEPdbNMGvEUucqkncdmA+hH94R8CX7/PmJFRqujbFRo2nyRn12fN8pyY9VwIzi7nJ72OW16XxZMvmNvzcFS8/bX09hnSlQa156asugkrX65dD+z+hlx4rbx92sWU+WpH0+c5MW/scG9DJaCESg8Er/4BMHCvsc/G1E8RHPl3oxmvV8G3RJQhIjsKvoWdsl96faf3YVHBJx/4pGSo9dBx8dY/8Qfm+zzZcwT4odT3msX2nWDydh+HKgVqDrXnCOfx2p/68fQ/K7nO/p6Kr9QhVikxnl+OUFEl4DkyvMYbG+1gVeLlP/D2LL79uLm9CGPfdaGTYTPG9nvlErZkMc1n4+bJtiuAZ78ltnfB3FFNmNf0pO3q6RPe02DncYdSYYgnJIbDEI/NqQ9PPyX9xrBYfJ3q/SwU+3rsHlcC8SyHDyAvwSe//SGptAydkRng0wWu1/ccb/jibxU5J70knCCkaqzNeFuX8NqmpcUfe97YtjH1ISFHP2OGdozNuoWlZVcv3260Xzovfyk+8T/A6HF5w/wVH+L1by7cmH7hz+X32FvQXA7zNf/icB4M8fD6OG3c5tSH6J/+uimGdaz6NCi7x/PtgthCWpyuL//Q3M6T//ye/GN56mHgX95XmD3t3A/sfkzeVNvbp03Y3S54fvaf2FIarJ/HPme8tzF1IvrfbIywhxMGwxgTrzVtwE//ceEq+Ct87ClnYRAR/V/4BfN9AajeRYe5obkU1lG7N06lQB9h5oTYEB/PZl+cL5WZhFRQsaQ6dvIVrCyMi9ZzpSkHtOgZ4HPfMTbz5bf5iFSuo8PBUItI4d7+o88DZzhbiGVVLWgTTrCLauZJLaCp8KG/fGqfjXG+6A89aHjATpqqyQpKceFNJvSM80lWpbY+u1SqlRDwmmpZFC3Ae/9v4Rf+Z++Sk5bG4hJE9H/hx833BfBzjO1X29uvRVlbNjaf/c2XqDaF2DyP5edqcW3FQA3iNQ59w9i2Kc6fsrnz14E9HwL8DhB9q5IQzgvnTVb5hmx4efnEinkcKwxvNGLidjWzhpW0VstEsMJJct1QmEn/lnj5H/xDyaT5bq5qA/78H4E//OfCvnP0QRe6rpA3uWt4sVHh1MVywzyv9nRIy5Zpk/Tg83UfrfBZPtCOmWfTksyytT1pyZROKfjXHTB32A/ni/63bgGGnxTxrKayFQFzmZWTC3wNSrIEvJDcz/dYKysoMJxrzt+tVvbwtziDpRYVtBX4nb/M4oOfNbfz5Py3XejlekEUmbnwOjySfdcXVk0GpOFbtUw0wFwyYJIPYv8t4P47pSDKLfxsWHhHbrXynGVMZ4VTXNUECqFQ28wH61g2FKfMV+v37Arn6/tCwFvGJI9quRLfwjih7Vyc8yL4dr8KVghLDNdKomfEbSb+Ld+UL9bx/B2GGVhRCvl8qcwnnpWGNiCiUKjg//xrgV5rwbX5YBlJHf5zhn8KgE/X4p3AT79opEMiWhfYkyi3aPG0qpnfzA86LO2SmOfF2mY+yaoj/L0NkuaOudgRlkcsKq38XmPbhjhb9NMxFXe1/V24NGAa7IAkGi23q4l101E1ftcSoWoXifSg/vpfC7/Av5gvlj8X8dLfy4HeEvFWqrZVaxyF2ctrsOypWvB3WW/oMFkNjZ1hedh4MNfZon/ukfxj4rWCBsrUp7ZqA71LNjrVqizV9vRpxSLM6oHlBfC2+6VY+OCUpc5XKnGgF/iNIgZ1K44liNWAv8XwZK18LP4uHSeKarVsuVCsdXioTTbF2aI/vqd2BpgvNE56Rhy4rZWh8nfV6qPm+0pTbdGXBu2fv5It+NL+9JckQ5by8i2mCw/xVAUKfjXym5nLy6cd1cqOea0MV9byHPKBqnr2+8Z7G+Js0R97xt5XQMNk4vrytTZS5lM18spqWMwBzIrDa0oU7uW/4V5gwzXyJnd2zWLI9TSLl/ke3sBlJyj4zO9qtEd2mGdP4Wev2apbdoRlEa/Fynv54WzRnzpcHWMvFholp2VyEL/WBsp8qmZpV2Jq4nyIl/+JL2cxzml9BfCXvywZwvXdC0F+433vsJHB8VSsabnVgL9T68tnPeIgcj7Tl2sF8ygVF3sRfbIhzhb96YP2vQIaJ70Sevl2oVoNT7XEyPTy/+Bjxma+3LMduIJefqENk3jVvWuBn37A3K41LM98eyr1BqfYsn7V2plaCJaLFv0KMDVZe89jIWiM9PKtB283GhTUSl+39KC++r0szhW41MmH3itGU2xPRLz9v/pVmxgdQ2gUvkbDiu3bdRKHtTrApD1v0HKu6EeHDVGx4/ILPC8app0fYF5JrCIp5O7LQuFviOf9nn8wNvPlXvHyN18nb4o9N/nNgY3AO15pbtcKXj+vQdUB7mgweM2sX3b19qmsnGhiQ5wr+naP53OGAWft2NEgqwHLhg8Kr1QZSf5+/hvA8bPmdp584J3yT6khkRngj3+x8AuLlzMUQ7tib8XOdaCSWN6+Xe/QZblM2PMGLecuw3DkU8APfka6+Da0ena7l0myPBE7oIxQEs+tGllGq2LiQ9Ir8Xsi+l/4RlaJvj+Pbj6fpNnVDvz8j8nJMA9KtfoQ8B9fzeLMBdGdPFwnLr74pvuAK9fL75djiiUbEC69wLytVnly8NROjgwF/4wkhvfsJv5cjsHfBrxtvgWdaotzRX/3nwNP/aFkbDUsvgCYm0xXqS37wGyqpugT5gNnLnFsoxJWxt5UIXFdNsDsfZTrXHhthYgNwzHlEHw2MixLflc1y9Juos9rZ54eNd9XKy/ygaLvloJ6OyucvXBueGf6kL0K2YIVwlqXRGNMi6yUSLDCc0G5fFO5z4UNyHy/s1Aqh+ATevnl+i4nw7Jkw1vNu83zhdqUFS8jZr8HpTtXmpiZdhR9NuycTmY3I6wFVvlQbO1YVk6E+WjdX6Dz1Khndh3QpRZEteiXjzRXWrMZNDxO0bT7beLVhMJEj9h+vVxnQg+/2Omm9QjrGZc4sePNWjw37emXkZnT9vN0KPocuNRchGVkxdI1pcHaavk62su/CPOlTRLtzE7Q0YlwpNleOFf0M6IidjJ8y7PnNDK7GV+tYTkxJKHzpTTo4Zdz2me9wLrHekc7s0sPm/cP8Xxi54xtG+Fc0Y8WOEG70tDY6G3YqSGyC8wTJq5oqfOnOKz8IzoPL4V1jyFVuw3ospzio8Z7G+Fc0XfZbGIuvVh6G3YyOrtBL5VhHi1ahcH84uwfPS6yMMwju90MqcrtuPHeRjhT9DMpICIKYhfxoKHxXDhVU4v+/DB/mBiT1mGewuDgrdVY2sXm7QZtyupp26UO8lxS1lQr++BM0ef9ZCxku6y7QyOjwdkVSyxqnWhtfKXXyo4at3PT3OMbMc3NE+YTwzrW9nyfqUWyI5zBY4dlzHOJ8Inu9sKZd+RmpJ/7cS/QbAPrY+6x271KUqW6l9ZlLvbKRtDyoHk+PI/c/XzP2/atvy12njy2krNt+NuMwc6dZscKS2GrRB7aHeY5y2Zu+Is3oFVyjR1+71LTHXkMEx+iYj0BLje6ajVIhPt5rFWGua+55Zr7vlzwHEYkcezUDtHftFxk+wbgxw6ZO+yBM0WfK2x+egBoqlRNKADmHkWV67NbolsMVsWyEr+XIsBkCTcFwerqW3dlUhD4yuP5ys/y1RJ6vlr7LazvW4zc4yvBfFbnPEssP/Pley3KIpdcUSc8ng0Az4vv+TdrOQxL9Pl3K/FvHGTlezYwPJ7H5X6O35ObioW2zmXseQ6VzreloOh3XgW8br+5wx44U/THnge+tE0MqdalKlA8ubbMGkkU6HywDJJGb4kyX/n0J4Y+GPdmKNASdr4y5RryQq9zKXS/RjOXhRRiqf3zvTJR+K3GgO/Z62MPwnr+BPdbjQLrhfW5fKBdH5NEx4ifryVcf8crrd1P2utGUoeK/m4R/a21F33mHI2ST+jnTVl8vxA0QCZLxLn4HlcHpLjTJqxwCo+xLouvuZdY48vVaErGUpu5r5a4Ewo/Q31sCDolcYKE1RDwuKXqGcM7DPPUOsRjjT3+jHVh9kCLfikw51ioGyVZ3dRcLAFnD2BcEu/IptjTm+d+6+/WZdT4cjSamsM6ZSmSJfCsFxwvo/jzoeicNEFBt+pfLjyWDtQRSTymlnWK0spzfId1QfaAsqMpBYo9vRILGpllbPQ2dkl6RNLzkuiBcGDOinXyuLnCr9E0MqwHrBNMVviHr+wND0l6RtKPJL0giY4U6xCTBfXVCh9p5kWLfinQy7DW/KCx0jgZuuGjMSn0FHyGcJjLNMRckddoNPlhNQRWI0DYa2YD8KgkrqdPseffeSzrmR2XW7YJWvSLxTIodjvpVbBL+ZykhyXRI6HxWUKvRV6jKR+WsHMAmKFT3vT6kKR95jbrozW1VHMZWvRLgZ4FDczyONjdpCFaHodGo6ksVg+A9ZDLcVH8+TxyzgTSdXBetOgXA42JOcebnXZIYgiHcX3t1Ws0tYH1zgr/UPxZLzl+puvjZWjRLxQaEY2Jg7IcXNJxeo3GPrAesk4y0Sm7IIkhH10/Z3Go6M+dp1VFrPn1hIZkJY1GYw9y6yWlgsLPGx+1i6twZjb4O6s7SEPj4U1VnILJm6ksz55Jo9HYE6uOsr7y3hjWX+pGg9dbZ4p+08rqiT5ziGEcevfW1Ewt9hqNc7DqLKdT0+tv8Fi/M0U/m+8iNyVCw5iQxNggsYxHo9E4C9ZbS+04y866K74Bcabo082vhqdP42A4R4u9RlMfWHWZMX6Oz1WyXqtQkv2Ew5mi7/aZd9xVQPlZRgzj8NGWVjfQfuWm0WiKxarTdOjo2FUKylPreuO9jXCm6LP19HjK7+3TEDhgy/g9Xy3j0Gg09YVVt+nYsb5XKnKgPf0yUu7M5NdR6Onh09NnztivvDQaTblg/WY95wBv7kSNcuKyn8Q6V/RDK8rXOrOgWfAUfKLFXqNpHKiCc3v45UCFdzYY722Ec0W/XCXDr+EjB7XgazSNC5WQnj5j/OW8g9fFW4PthYM9/b7SPX0WrBXT43st+BpN48L6b03iKIfHT33y8ckv9sK5ou/lM9VKgAVKD58tuxMFXz2VRyedbJ6cBnWAp01HsNTbgfg9TSuM9zbCuaIf7DcytRgswa+Vhz9f5chNfKCylfhEfSulchINcr5ET0UnnWqR5rPHXJtVdpuTcu18vnpgpWpjCT89/lJ/3ss1nu2FM5+RSx77GeDAp6T7VKBi83B23bgORyUFf262Wpt8XSjHZX8i2Can5EIksAJZtxcJbzuS3i4pqBQSvk55zydFG18Q8/ch6+J6ssa2K5tBNDAo+9zzX5b8PeHrQsrdJH9f6CQ0mkvJim/oy0zDl5wQI7vcT6QluTMpBBNnle0ZiBWLzYbiw2ofvyOQHIEvNSXbHtl/Fu5sXD4XQ1CO8WSi8CTiC9dHq67O9/dKTYvkhfGruyUV4x7H5Avu+zSw/u3mDnvgXNHf8xfAzj8A/AUUOA+1pmWSctuK8kz4OifJ7yRCHQgH14gor5C0HHF/v4h2v4h4u3pVYuxpkopA9yirBFx9WL7TpdwoYu03MPbzBy6S+/d5kb9rwdcUCq1wqemHFwXfgpZ2cZ/xd6PSXXwvx6hGga9e+JPjqmEIJC/I+zHVUAQS59EcO46m2ElJp+CNzVhfY33FRVEudwNgVZV+SYVUG2oBZwTe/zVg5WuNfTbBuaK//5/E2/8NIJBnIfOwcnv4lsjnaG+sqQ8TrddhOnQlplo2YSa0QYk8zZ+ej0tE3RBm49XYbwq99SUaTYNi1AJR8NmGgGrukddLU3PkCFqjh9Aa3o+2yEF0TD0Dn9UYMM22KWWo6KyW/Jo+830+UBuoNw/8EBi4x9hnE5wr+qe+DnxbWtBgnoVKXS3Vw7dEnonf5wHGO67HaNtNGG+7EeOtW9XOi+KeEs+dJU9x12g05cCoghR/r5k8yMirJxNDx/Sz6Jl8HF1TO9E29aJxMBsA1QiUUAv5PYUIP7WCvt3r9wEdm4x9NsG5oj+yE/jKzUAoz4Kk4FOoCy13S+hZgJISTV042/0KnO+8T3n0hB67O5tQIp9rEVroNZrKcql4uUT8fchwbS5ReTpe3ZM70D/+A/SN/QDeWNh4ohYbAFJoI0AN4DOwLw6rLYylG286BTTbawaPc0U/fBr47EqgKY+Cs26z5qH5lrPVUkuKN/ViqOc1ONP3Y4j5+sWzcMGdSYjQ84vZCdVoNHbhoqCxEfCrRoBBI4aEVp7/LywbfRDeuDQAhfYA+MXUhGVqa3EsWf0p0Qg3J1vYB+eKPvl/UlgteRRYTBKXUbVa+IWwWmfpEWR8Xgz3vBIn+9+KcGi9CL1bhD6uvAcepIVeo3EGhsBxfMCLtDugQq4d07uw8twXpAfw0GyoVlXqpRoAHtsraakbbTkNlT2Ot3NuuL1wtuj/uxRQPi21NWNHFSp3zCHHq59qvwqn+96Mc10vQcrTDI8SeiNss8SvaDQam2M1AEYYyA9/ahIDI9+QHsAXEZo5Y+jJQprCDzNxJs9SUPQDncCPM8RgL5wt+l+7Chg/IK1uHnLMJ2Dlro9vXTZbbink4Z77cXzgHWq2DUuWYs9WQAu9RlOfGBruRsYTgiuTROf0s1hz9lPomnja+KPy/k0F4DYdwxZJreb2YiTlgLWvAe79H3OHfXC26L/wN8CO381vBg+vksLPGyYo9EIq2Iyh/jeoEE7MP6BuEFEzb5YsUY1GU0+wH0/Pn7OAmmKnsfbMv2HZ6Lfgjkovn54/w/LUmXwHcRnVeeB/gcEHjH02wtmiTz4bEPWWHF7K2+dlctyVgypXvxfHk5txLNaLVKAXnnRYijytvXqNpsGhGDL2z7vWA/GzuHmVC8Gz/w0c/FeAk4JULH8RpbB0pm8z8Jo9xj6bwTbM2bzqGcNz57oe87Vf3Me/sSA2vAH4qRHg5r/C0ewGZD1B+NJTkgla8DUajSHnHOilLiRcTTjp2wrc/S/A244B/TcZj1jkukELaQ11pkW6Ay/7obHPhjhf9DulRX3bkLxuMGL2CVPkmfie+/i31zwqhfdltdTp8PA5pKIi9i75u0aj0cyB4u8VdRw6ftDY0bIGeOBJ4P4vAsF2Q1cYt7e0Ji6Jgr/qPuDHpIEI9qiP2RHnh3dyGX4YOP55YOqAtLoZoO0KKYQ3AoOvMA8weOaZZzAxMQEPn7Or0Wg080BpTKVS2L59O7q7ueqaCSXzuIj/0NeN+4U42Nt9A7D2J4CubeZB9qW+RD8P4vE4HnnkEXi9XikrHdTRaDQLk06n0dvbiy1btph7nI/zwzsFMjw8rF614Gs0mqVwu904d+6cuVUfNKTo67CORqMphPPnz5vvnE9DiX4kEsHk5KT28jUaTV5QK+jtDw0NmXucT0OJ/tmzZ1UBatHXaDT5Qs3Qnr5DGRkZUQWo0Wg0+UInkYn6UQ80jAJGo1FMT09rL1+j0RQMxwGtSSBOp2FEn600Z6dq0ddoNIXCCIEWfYfBaVc6tKPRaIqBziLn7DNa4HQaQgWTySRmZma06Gs0mqJhiKce5uw3xB25o6OjaukFn8+nwztzUflhDFQZ7w2vhvvMDePVYtZcsipcZiwza77nRv2bk00xys8oLuO9eufKcXR0WZZEJpNBKBTCrbfeau5xJg0h+vv371fzbLn0QuNiiYIk6fGw1NOJGNLJKDLJBFLxiNrOpIz3JJOKS+IqUqZYyIfc/iDc6uY2FzyBZnh9AXj8TCH1N2M7pI7NZjOSKB58+oSmfFhl6TbKMpOWcpSyZHkm4pKiSEnKptNIxjh5wa3+xuNmySlLl9sLt88oO2+wSd5LGcq2Va5ZETuWIcuTn2tUaMtcxuUVr7h0LS+n0RCi//jjj6vZOw0X3jFFgUKfiosQxMJIRKaQmB5FMjqDTDqphGFWDExP8GJviOJivrVQ1mKYjGE6kkwLcikBMUTE39yOQEuXvLbBE5TGQYmH/FaDC0dxmCJP+5XXtJRjMiplGZ5APDyOlJSlUY4psyyN49UnCyxLvhqNiVGWHq8PPpZlaxd8oTb4pCzZKDRqWSYSCVx33XXo6+sz9ziPuhf9WCymRJ9crAB1jFRYem/00JPRKcQmRyRdUKJPL15VUjYEOcJASs2bS8xI3qttioJ8r9vrVx5kqKMfgbZuJR5uEZQMBYrHaOZFia/Hqzz3ZGQG0clziE+NKq9dlSWPMRsC+Udtk/KXpeHlG42AlGWoRcpymTQEnVKWrer3VWOT+7k6hatuDg4OYtOmTeYe51H3on/hwgU899xz9R3Pl+uid50Vzz0RnkT4winEZ8ZFHCJSEeXPShiMXk6188AwL0kUj4wIh/w+w0KBti40dw/C19SuegjZNB8+ryFuj0+Fa+IzEwiPnkZyWsoyGTfKmeVolmFtyzKtbM5ozJch1LVMegE5DYDZg6g3GNcPBoO47bbbzD3Oo+5Fv57j+fS8WMmSkWlERk4hMn5Odf2VJ0+hpz9fZWFYCmVuFA3l4WfhlQagqWcQrcvWy2aje/0imNk0Jk7sQ3x6RHpnMVXGLjfL0MZlSZGXxsjX1CIN+QppAAZUOK8ee3K8ZoZ4Xv7yl5t7nEfdi/4TTzyhFlqrp3g+hYBec3xqBNPnj8nrmOzNqv12FIeFsEQjnYqjZ+ONaOpcJpuNK/wsv7GjuxCWBtztlZ6p/MdG3QlYZUmh93i8CHb0oWVgPfxNbXSP66pcKfrXX3/9pQ9WcRD1o4TzwPn5jOk7RQSXwhL18MhpDL/wKC4cfAoJ6fpzP0MCKgbsoGtV5yrJzYfV12k4oCAkL7LMEinP3DCOE2BZsnfpkR41SzIydhbn9j6CkQNPIjY9dvGa6gA6kGNjdLScSV2LfjgcVsLvdJTYS6UyxP4R5Q1mEjHDG1SVqTRxoJeWmzIZK2WQTl+auM/6+9zPFUdWXQdDAo3s5RP23lr716pwSbH5ObdMrHLMzCnHypQlMXqabvH26YjERfAvvPg4zu3boWYacWBajNY81pnw+qampswt51HX4Z1Tp07hxRdfVIO4jkR5Tx7ExocxcfJFNefa8OgND7kYrOLmC0VWVXp5z+/0uOl1G0n2IBBquuTh8XwnOoFEPCpv+Lks0jmi4Zbv4GcZg7bObrEGiZ+hwLX0r0HHqmvUQHSjw8HRc3sfVrOtjHGZhblYlkZZGOVAT1TKQYSVH1fvRWh9/sBlZZlOZ42ylA3r87Nlqb7DsgWDxcpyMdR50tbSKYQ6+1VZe4PNapqpcSbOgtfDvLjnnnvMPc6irkV/9+7davaOE5+URY8oFYtg/PhuNe2SFbcYsbeKly9pUeysVGqKMuOuHR0tWNbdjO7OZgSCQTSH/GgJeeBuDhofWMgyeA5SidPRBKYjKUSjDKNFcWF0BufGo5iamFK/RQFRDYmHU0Stj148f0MMslh2zZ1wB8zfbHDYyM+cP4nxE3vU9MhcLpZlFinx1Fk+FGWv3y9l2Cpl2YSOdinLgB/NTQFVlggFjHydL2tZFCyPVFpsLSllmUREyjQaieLcaBgXxiOYnpxSH2ejwLL0SFlaFNoI8LzVoK/YTnMfG/pN8h3GzWVOg2Fjij5n8jiNuhb9xx57TN1B56hBXOWheTBxeh+mho4YNzzJvkIq2Fxx4KZfhGHNim4MLOtAb2cLWjqbeITy2FXiQfK/+ke95oElGuq9vNIrZJI/TEoDMDI2jdPDEzg1NKbmN/MQLxsA6zNS+XnjT//Vd8zOO9fQBDw4/fS31KsFG1CGZEQ2EZIe2IbVXejr6ZDUikCbCLt47aoMc8uSr/miik3+sV5VWUq9ke+7cH4GE2OTOH52EmeHx+RcMurPdKasoizUPjlFl73WznVb1QA+ewHGSTsDJ9+kVbeiT5H50Y9+pAysUI+kVrAS8Iaq8wd2IpOQ7r0VyikAXm9SPDcKRGtrM65a14c1q3rR2tVsCAI9REsYKonVAKgYgwtj56ZxcmgEB49ewEw4rMTf7cqgZ8MN0uXvE/1v7Hh+LuzljR3drWbxpDMuabjT6BWB37i2D+tW9ojIi3dplSPzrdI12CpL5eW7cPb0OIbOjuHFI8NqzIxlyR5A4bYqvcFkQs3x716/XTVyTvH6qS+rVq3CFVdcYe5xDnUr+lxVc+fOncoQ7S/60m32+TF5+oB061+Q9wGpAPn3TliE9ASTSfGmvX5svWoAmzYOINgeEusUUbAEopZYouH1YGpkGvsOnMGhUxPov/ZeeJCWP7NxNo9tYFgbJTcQj0Uxvv9hbLt2La5aPwBPk0+FYVRZ1rrG5pTl+aFx7Dt4BkdOnFe7fF6vCjnljbLdtJS9G90b6QD0S0MQN/9oX7jMcldXF7Zt22bucQ51K/pcAnXXrl22vxNXeTfi8Zzf/wQSM2NqyYJ8z5dFR48+kUyjp7sd2zavxCrx7JU4UOztWrSWaHhciM6kcXgsgKEpH7zuLHc1pPizqFhkzJo1HQms704CAa/ZaDMObh5oN3jCPg+QzOCFF8/i+X0nEI8nEPBT/AtxXMTrTyXRsmwtutZsAdeFsq39CgxxMWR6++2321pf5qNuRf/w4cM4fvy4re/EZTgnEZlQ09lo4GwA8jEgFhmNLp5IY7V097dfswpdy9ql4pmeoKMQ8xOxz6TdSvyPT/iV198o4s/aJ3oJn+jjus44Vncm5MLlD6oYHZYB4vmz4E4cH8XO549iejKMgDRc+Yo/7ZozuHxNHei96mY1ecGu4R6eK0M89913n+MmitSt6NPL5yMS7VognJvOWRqjR59XKxmqSY55qJwh9in093Xg1m3iFfWbYl/r8E1JmOcu2pBJu7D/QgCnpvwihJwGWp/iz1qXkkQ53NAtYt8uYs+N2TbbwRfNXpwI/ckTo3js6YOIxQzPP1+HhuM7XDSw96rb1NIOdl2XiZNEuAZPa2uruccZ1K3o79ixQ02rsuPMHQ7QTp7aj6kzh/IO57CYKPatLSHcev16DK7sNrx6x3n2i3FR/GNxN3adD2Ii5p0V/3qBRZbJurCyLYEre2JiD7KzHsR+Ll4pSLHtPXtP4ZndJ9gOqEHfpexdSRLFXzKlZ/0NaqDXjrO7OIi9efNmDAwMmHucQd2K/kMPPaSMx27xNoZwxo/txgzXV8ljdg6vQc15F2d+6zWrcd3mQRFF+QxjvXWLmCSzxZXFWfH4XxTPPy0i6fSQD2taMuNCWyCFzX1xtATZQzP/WE9iPxefB8loEg8/eQgnT18Qr98nDcDS16vi/Ok0OlZfjbZl620n/AzvrFmzBhs2bDD3OIO6FH12uzhHn4JqK9F3uTF25DlEx8/mNR2TRUPvvrurDffcshFtnc1iaSIUddlMz4ch/hkRyj3ngjgXptfvTOGnd89i29CVwJpOc3aKKkcHXkwxsNBE/E8ev4Af7TykBNPrXXoMi3WAYt+9fhuaugdtFePnDJ7e3l5s2bLF3OMM7Bf7KAO8ccJ+bZlLPZqQDzThPOyljJ2xe87K2Xr1arz2ZVvQ1t5kxO4bRvCJ5JF4+BzY3ToQxbV9MTV0oQTUIfnA82SxBb0Z3LIigjVdIvg8d7muhhF8wowQB2bV6h686VXXo7+vU+ppasl6qhw3qS/Tw8eXrDPVhudDB9Np1KXoM5ZP0bQXWXh8IbXkrLr7cBFjT4k3zzDQK+69Ftu3r5E9cmxdxe4LheIPDLQncdvKMEK+zOwNqHZG6VzahWUtKdy+KoyWgBXOaSCxn4u0gP6AFy+/bzO2b1mjHJvF6iobhWwqqZ65YD9HznAw7ac1i1OXom+trGk3z4Aq0LXuOoTUbeeXz0OmUccTSbS3t+KND2zHMk7DFG+osbz7hZCyzLgQ8mdwq3jMfc0pNdXRhjqg4Hlx2OWq3jiuHTAeNN9w3v1CsLsmjs2WLavx8rs3i4PjVo7OXFgfGNppG9yI1mXrbDd9k/qiRd8m8KEpthN8BRUqq245D1rrjZiqZQh+CqsHe/Da+7cgEDRvzNFciginy5XFlmVRrOtM2FL4laZJun55FKsZv5fGSov9PIi9Dwx24jUvuw7NzUHx+i+GewzBT6Jt+UZbr8CqRd8mMM5mT9EXaNSSujeI8Hf0K+G3BP/K9QO4V7q94tIYyqFZAClbyZ4NPXFc3RtTbaOpFTWHUTg2SuyNdElvpOHDOUuRTKO1NYjXvWwrervbpJduPEuAPeHWgfUi+FfbcromocYwRaNRc48zqNuYvr0RhRJR79l4PQLtfWI0MVx3zWrcdsdVcvIM+5iHaRZBhFQEdUVHEtf01V74+dMUfM5Fv10E34jfU+y14C+JZJzH58ErxeGh8PNmLj4zuXP1NbYVfAuKvv315lLqcsomF1rjgmt2X1I5K4KQkbQycxhXbBqULoo9u7D2RszXncVY2ItnzjSr9Xuq3cljBWLnzCW/fdvKCAJetkBa7AuGc/fTaTy+bwyRlo1SrEnbN5kcP9y0aRNWrFhh7rE/denps7tl2/COCZvaVDqLGwbCuOLKfi34RSPlnHGrUMrm/qiaLVNNN0YJPtsdLfilw5CmOGq3XteLVa1hY4ZyFcuyGHR4xybYvfOiBF/S5r4Y2kMi9kmbW7YTEOEfaEuoAd54FYWfv8N086AW/LLAcktmsLE3hsHWpK3GaxZCD+TWGDUIZONCoAHzVvyNXQkMdCSUWGnKBIW/PYH1nXGVx5UWC34/ndPrl0cQCmjBLx+Sj9JwXzMQRWdTWt2TYVe0p28DKPp2De0Ygg+sEI90TXdMDFsLftkRsdjYH0N3KFXRG7iMsnRhU08cHWqWjhb88mII/w0rwvB5xJGzufA7iboUfbuGdyhCHcE0ru4Xz0AMWlMJJF9TLly/0hCLSlkCBZ+rZA5yHr5uvCuEIfx3rbZvfJ+C77SlGOrOWlkAdhR9eipeseEbl4vgK69Qi37lMMTidhH+SsSEOTWzPZDCJulR6Ma70hg34928IoKY5LVdhd9J1J3o27EAaKh8wPV1AxE1rU8LfjVwwevNYqv0qsp51y6/hya2fUAab/WduiwrjuQzQ2hrOxJGI27u1hSH7pdWAYrO6o44Opr0OjpVRfK9vz2pFjwrx2AgBZ9hhs19Ufh8sqHLskpIwype/lWS7yHJd7t5+3r2juYSGNZp8WdxRTdn6tAr1J5h9TDEgksy86atUgcD2XD0t6bQJ42IXl6h2kheZ13YJr1l9prtJPyplDgVfHi9Q9CiX0FomCkx0GvEQ+FToLRI1AKux57FNb1cbtsok2Lg5zxShtf0xEwPX5dl1RHRbw6ksUZ6zbzPxW4ev1PQol9B6BlyemZ7iFMPzJ2a6iNi39uaRFcJc755p+/G7ji8DOtoaoc4USyHQAVnZhWDkwZztehXCMszvEIMVIcCao3kvYjFJvH2WQqFeogMC7WJh7miPanLsuZI3sv/V/XE1Swqu3j7dp0mPh9a9CsE53Gv7UyoGSRaJOwAH8Aiwt2WNMTC3LsUrMtJ8fLZYBjosqw5UiZ9rQl1z4sdbtqil689/QaHhhjyZrCmnYO35k5N7ZGGeH1XHF5afZ5iwbLsCqX0zCtbIQKbdWGD9KK5Sm2tnWyfz2f7FX1z0aJfATh4S3Excld7hvaBc/czWCGNcT7zvSkmLMsre6Qs1bo6uixtg5RNpzTEHcGULbx9J1F3ou/xeGra1aJQ+D0ZLG/TD0OxJSLiazqS8Hnk/RLlY3n5bZJ0WdoNw9vfKM4Vi6aW3r6T4vmk7kTf6/XWVPTpQa5mWEehPUP7QW8/jWXNyUVn8lhePmeKaC/fpkgZdTSl1ZIYtfL2Kfh0NJ2EDu+UEQoFpYGepPYMbYyI+Wouay0s5KRxd8iX0bF8WyO1TcpmTUdlV1RdCjqaTqLuRJ8DKrXy9Olt8G5Nl4ejt9oztDNc/747tPDsD87wWceGQXv59kbKr7c5hSYuz2Du0iyO9vTLhBUOWKu8fC0S9kbKR8prZXtCPMTLZ39wW91Yp0Tf3KmxKVKW7iz6m5Pqjutqw/BOU1OTueUM6lL0Q6GQKoxqwl8LirfR2qRF3xFIgdHT59TauZZC75+LtFFMtJfvAETsBzlxgm353MKsAjq8YwM4b7baok+hWNlqDfpp7A/X5Mmo2Tm5IR6aTUbKkM9nZexf4wya/Bm0+C5vwCsNdYZ64yTqUvT9fr/5rnowtLO83Vp9UeMIRNyNO3QvF3eu1aNDO05Byk/+H2hNqbGYakLRZ2TBSdSl6DPGVk1Pnz/FufnBgHOWV80LrwcIiBcTChiJ77mvXpByaw1k1Cwdy9vnKwcGDerI02e5BcUZyi1LTx1VfxH7/pakaqerWPWVzgSDQXPLGbjkpKuYRdVheHgYe/bsqVq3i3PzV4hneBUfn1cPIYFmMeLWZoy9eByHT5zF+ZEJsRQXujtasXHNAHquXANw/fBoHIhxsNOpJiTn7c5iz9kmnA974Zai45K91/bGsazNmrnjcNpbxCPx4ey+o3jx8ClEpMxY5Qf6unDluhVoWbscSEivJiq2G5dXx2LM3nniVDOiKbcqy0rDfEylUrjnnnscFeKpS9EfGxvDs88+W5W7c5l5KdG/bcui6OHgn9OFoimIf/zwF/HuD/yLuWN+Xv/yW/ELb3kZXvX6e6Shk1YvbD0+0GG4shia9GHfhaBak4cN+N1rZqTnxotxeFm2NOFn3vUX+NSXv2/uuJzW5hB+4nV3450/8QC23XsDMDVjNORORBrwfeeCODPtM9ZXqjCUTk4Rv+OOOxx1g1ZdhncCgUD15uqLNnDRpx6GBOqh+RQB33yVePJL8NUHH8erf/5P0bbqVfjcZ78FdLYBPmfNYlBImfU0pVRnhcXHddr9/ioHhiuFVIFVgz3mxvxMS2P9z5/7Nra/+jewftMbsOOxXUBfpyiDA6XBLMvcgflKQtGn1jhpsTVSt6JfrYKgfTV5RSTqwTMk0sV/yStvNzeWhqLxk+/5v7julncgTm9fegpOIyBtFWd/UCw61QNvWI71UJYJ/MwbX2puLM3Rk+dw+5t+B299y/uMuL/fOSELhZRfR9BosKsRv6DoM6xTy2VfiqEuRZ/zZqsm+pcIRR3ACxLhbilQvHftP47glW/AsYMnVFjBUbiyaPZn1SwertGuWvJ6IJ3ByoFecyN/vvjNR9F/9ZuQYpw/UP2ZcKXgc2fRKg14NYqQou+0mTukLkWfcAZPpZ9ST8Oid9jBWTv1IhREjHkmYj00pDDW3fkLOHPktOEpOgJprOV/PhmLtNbTDCzxQOMcpC0CDt73bPsJpGgHDgrbuUT0g96s8l0qDUW/ubnZ3HIOdSv6LS0tqlAqCr9eKlZLPQmF14PxA+Ktl8DgLe9AeibqHLGQcmxT3qF4iQFxFOqlAff78P0du8yNwpmcjqhGHC3izToihGE04Gy4q1GE1JfW1lZzyzlo0S8Rl/xEMx+WXS9C0daMf/jEV82N4rnp9b9pxPedoBVSdi3+tJyqCx61WF6d0N6Cv/vX0sry1NkLeM9v/j3Q6RBxU2UpDXiF6yO1hYk64zTqVvStblflhZ+DOXXi6Qd8yI5O4k//6QvmjuJ5du8RfO1L3wdCzhjY9XuNWLDRSDmhpVoC8c6f+95OPLJzr7mjeP7hk1/Dmf3HmUnmHnvTpJZjqHwZchDXaevukLoVfRZIpefOsjkJ8MHnThEK3pU5X56w606vXC5l8OZ3mDtL511/8BH5V77bIbMbuA6PYwbkGTqb7w4k7hMPf+T0OTUNs1y8/Tf/zhkNuNgwZ9PR16ukv0dn0onTNUldi37Fb8wSowo5JbQjgn/ixFmM8u5adtU5w4Z33nbIexH8nTt2o3PTG3H2wrj5gdIZlu/6wfeeMG7/tzkM06lBXCeUpd+HffuPIcuFZlh+jLkzsVzF7v/jU19H77afNA8uDz/YsQvJkUlHLN3glsI0bq6rLLVY46sc1OUduYS3Rz/22GNqBk+lxJ91jjeDbF0etf/yC93tuOO+d+Kxp/fjLa+6A3fdtBk9XW14/NkX8d0fPYd9h06ZB5aXNz5wO770Hx8AJsPmHnuSkWoQTnjM2Ts2LkuzVxZa+YB4mn782P234I4brlbn/8zeI/jG93diaHjUPLi8/O3v/xze+x5pTGYi5h47YizHsONkC+JpV8WWY0in0+jq6sK2bdvMPc6hbkWfl/Xoo4+qwqmU6POW/ZVtSVzZZ/M1d6QLmojH0S3e3wxvoKoiHW3NGN/zn8ZGtW6VLAKKJufp++x+k53fi/37juHql/2KuaN63Hf7Vnz/q39ne9Fn+T1+qqmia/BQV/r7+7F582Zzj3Oo2/BOtajGwk4l4/XgwJGhqgs+mZgKS4OTNDxUG+OW87O94BOvV3n0teDZ3YeBpP3LkkVYjSiUE+P5RIt+IyAt09jkjLlRfXbtP2oMILNTaeskJzvvfhslacB37ZP8rAET02FjdUFbaz5PLqPuzGV2aS5Hi36J2N3pUYjg7n7xuLlRfby+oJyDX6dyJMnLsakahleUkDrB6DULoUW/BBjaGYuKB8upHzanpo1TJgmkEzqVI6XiIrl1dAd42REPP+PGTMLtDIesBmjRLxFOD7M96Yx6YEatSHGaEysga6FOpSWhpamGC9qpU7C7zfPWLCOvNJejRb8RyGTQ3VG728W3blprxII1pSP5uDWP5x1Ugo7WZjWmYHfNz2ZdSJh+RiWp9IKOlaJuRZ/z9KtRKBkn3MGZTmPj2kE01WDly872Fvi5PK8eVSsPyRSuu2aduVFdtlwtjbfXZ/uypJ+fqcIU6kQiYb5zFnUr+pxHW41bEGIpB2RhOoPW1QO4ct2guaN63HXjNcbdojaeo+8oxJnZdu1GhGpwl/Mr7truCMXg7VnV8MG1p28zkslkxUWfvgRv0HIE0Th+9e2vMjeqx6//3GuVd6opE2w8pff0E6+929xRPX79Z15jPAzf5jC8w6pvDoFUBN7wqT19m0HRp7dfaZQDq9qWyjYwJROL46ffcF/BT8Qqha6OVtz3kpuc+6BtuxKO4j0/9zpzozrce+sWNC/vtf/YjAh9NOWqqOATij41xoneft2KfixmPPmp0ouuUeuTSWeEeHw9HfjDX/txc0fl+fhf/prxRsfzy0siiWtu3ozXvvRmc0fl+eTf/AZQ5NPUqs1kzCPaX3mbi8fjVQkhl5u6Ff2ZmZnKC76Qld+YinOuvrnDzkxH8Lu/9taqTN/cvnk93vjj9zsiHOBIxNv/tw/+RsWXDye/8vZXYs3WjaqxsT1SD8PihFXD0yfhsL0XEpyPuhV9FkalRV99vbT0XNjJEbArKiLx9U/8kbmjcuzkwlxc60d7+ZUhmULXyn588cO/Y+6oDP3SO/zIh34XGJsy99gZw9biDO+od5WF+qJF30ZUQ/QJfyKckGyshpWVg1gcG7dsxIOf+lNzR/nZ8+CH4Wlt0gO4lUZ6bm94y8vwd3/4C+aO8tIuZTj0xKegVtV0SOOdzYgQV8HTJ9QXRhScRl2KPufoc5ClGqLPpRjOhb1iAQ7yaKfCuP81d+LBT/+JuaN87H3wI9h8w9WOif86HhH+9/zWT+Ef/r9fNHeUh+7ONow+9zl4OPDvoMabs+nCScb0Kw/1ZWrKCT2gS6lL0Y9EIlUbVadxqfCOuknLQcI/OYP7X3UnTj/+71ixrNvcWTxbN63B+POfxzXbr1SNiqZK0AMfn8ZvvOcn8cgX/xrNZbgB73UvuwUje/4THj4eMe6gmVdSBaPS62bVr5anzwkjThvMrUvRn5ycVKJfDU+fMBMnIw4ZzM1FxHlw9QBOvfBf+NCfvNPcWRitLU349w++G88/8Sl09HYAM9Vfs18jiPDfec/1mDnw30Xfj7FmRR+++9kP4Ktf+aAx/uOEgdtcpP6dmfHB466OCFNfGEZmVMFJ1OWTs/bs2YPz589XZWYDSaaBjd1xrOkSr8juj02cDzaOjMGnM/j857+Nf5b08BN7zT/Oz2tfehN+9s0vw+vf9BLjZoUw477mHzW1gw/26GhB+sI4/t9nv4UPf/obOHB0yPzj5fi8Hrz5VXfg//z0a3DrS280Zls5csaVGJ+Y8TNDTZiIe+CpUjXkDVpbt25VT9FyCnUp+g8//LC6MataT7ah5gW9Gdy2ZkaE08GdJ4o/wwOM44qXd+rACbx45LS8FU+G1xjw48r1g1ixeYNx0dGYceNV/ZmQ8+Gjo1iWzSEV99/7/AGcPH1BCSOrfJs08ldvWIXuK1YZN1xxDMZJoZzLyCKRduFHJ1tUh7tKnXw1fjg4OIhNmzaZe+xP3Yk+b5jgA9HZ9apWeIc5GBODe+CKSdPTr5LFVRLmHVdUpHhY+cgLpUDoFTOdBcvP5zV6AZZpstHmHev1UpauLMYiXjx9pgl+9djL6sAwclNTE2655RZzj/1xsFs6P6Ojo1VZfiEXpY9idGcm/BcrldOhwHPWBj15q8vP91rwnQfLkvH5mFmOTPTq66ks3VmckPrnqfIsOjqWnLbppHV46k70L1y4oMI61fLyLTh1c3jGpzwOjUZTTbJqKZTJuFvVw2pDb39kZMTcsj91J/rM/Fo8pV7N15fupeOmbmo0Tkeq3FTMjUQNxtPoXHLCCCeOOIW6Ev2JiQk1SFULrBDPiXF/HTalGo1dkfou9e34RFCFdqrcwVdYIZ5qh5WLpa7kaXh42HxXGzjmOTTNh1uw4dHevkZTDWLi5dcqtEMo+rwhlPcHOYG6E312taodz7fgr06L8U1HHXijlkbjRNxZnBJHSz17v4aiz5DyuXPnzD32pm5EPxqN1vzOOBqdV4zwyHjAFH3t7Ws0lSOLTNqNM1Ne1cuuJRT98fFxc8ve1I3o22X0XA3ozviQcMKDVTQaJyNVbGhK6lq6OkspL4YV4nHCUst1o0y1mqo5F/481/44OCrevspd7e1rNOVH6lXWheMTXGvHqHe1hLrDSSScTGJ36kb02bWqxVTN+eC6H2emvYg7aZ19jcZJSNU6Oe5DLCWOnrmr1lB/eHOo3akL0bfWz7cLytuX9OIIl7nVM3k0mvIi9SkNHJ0I2MLLt6C3Pz09bW7Zl7pYe+f8yDieeupp+PycLlkI2aK9BBoaP5v7motaxSDjws2DYbSHxELVTVsajaZk3BkcvBDCiQmfWh4qt2ZZasYXvrdei6FQdaCUeqQVuvOO2xHwVWeF32Kwh+jHpUuUjFyunPng9iA6fhbhsTNwyft84U/xKTvFdg/5SDZ+diruRjJtPHtfLecqyfo+Lkne5M/glhXW4E4xv6TRaC6SRVzq3aMnm1V9syTDEnhO3fSK9x/wZtAWyMDvyaDJly1Y+Pm9IfmOQslmM+hYfiW8gSbZKPzz6jOBbsDXbO4oP/YQ/ciQCP+knE0R0SZ+JnpB1HukuM8XC42N6+yINz8d8+DUlA9npn1qN2fw0GiYs/T2N/XGsLIjIcdaH9QUDTM3w0pce7PNFzW5gOdtKZOmSCTzPFk8faoZk1LnrGmazNa0JJ/8bU17AstaUgiIs2VkNvNdHVYdeDKtq+U8g9ww9hVCNg00DwL+DnNH+bGJ6J8BElNyNkWKflhEP3peef3VR7KPOu7OIpHwYN/5IM5HPPDJaVnCz3T76rDyPnSYp0hENFPJNEbHI5iJxJGmS2dVahvD6sUufyjoQ09XMwIBn2q0NEUgdeycOFe7zgVV/SLMyYzUqbUdcazvissx3KH+JFTZNpSUSmpbK92NIkU/Q9Ef0KK/OFKw8QlgRr6jJqKfi2SlN4tTowG8OBJUUzdpdqzjjOvfsNx6upQW/oKQfvzYWBjDF6ZVzrnpNTsM1jI2VN2dTVjW366Fv2Cy4s278NCxFtVpIsxC3gx5/UAULU0pyWD+oYa2URbRl+toXSOfbzJ3lJ9iVLb8VDMsU1HE4FJurBSP46bBsDJKJhopH/BgLMZmGoYmPyTzRkdmMHx+ShpRrmho3IvhtMSGyut1Y2wigjNnxUmpF5OvClJfPFk8NXRRCDkeF/JlcKf0oFuC4h2rFTZrKPgW1DLlfNq3jtvD9NzS5S0lk1w2y2QxwPamNO5ePYOAeP40UJ+I/cGxIKaiXlvYplOIx1M4J6Jvib2T4flzbaiJqSjGRfxnXVbNIhiCf1R6zlNxj8oy3oHLuP1tIvhujqvZLWRarBSxp0Abr7ATbA/Rp2iXotkuEVK7kXHBJ4J/x5oZ9DWnlKG65SKfOSPeioo5lnLBDYIIPT18eslOF3wLXgYbsNGxMLIcfdQsjuTXtPSSec8LQzmsR5v7Yrh2edSsRzazCwq2NOzFw+tpBNF3U7SLbh4BL3sKNoQeiBjm1sEIti2LqCvkbJ4nhprNnNeVflHSGUSiCSWU9UYylUacjzCsw2srG+LFp0Tkd5xqVoLP9fLvESdqkDPh0uoAdZi94DmVcF4qPFRZJ9Yeou/iTVXMqCJFkJ6+Dcaj50euSwy3rzWFe8Vge0IpjIrn8hw9fvUAZy388yLe/bkLkyp76sXLt+D1uNxunB5mbN8eVdB+SMHL/4+eaFHh0bUi9Hevm0HAJxt29PAVNFYpTxVuLhL1+crahD0srtSYPgdOKAx2Fn45Nc7m2b4ijBuXRzAS9mLP2ZAp/JrLkPKcDsdx+tyYGgCtJxjemZiMYGxsWjVumrkYdeIREXyv1I+XrJ3Bxt64IfYqfm/jPPMUuipALrzuUkJD+WGP2qQ8OUMYi4Ji7+E6N3bGvMYMvf4kXrpuSrZcOHhOhJ+DUZrL4Nz2U6dHcWF0WoS/8pWhGrABmwnHcODIGXlvw7GommNMfHh6qFndaHWn9I6DvNHKtt59DkqHrCfnFYmn8jZhHxeqVNEuNbOrhtG4sZ3bvCyKAWkAIgkKmhb+S8hk0N/bprziA0fO4sjxc+IUO3dAl2dNwT8zPIG9L55GSpRtcKAD6lZSzSVMxbzYKnVjVZd5F7vdvftc3KJjRUcc5HOeys3Pt7CP6HvF4y1a+ORzvBnCtuGduZhGLAbdGkijycdRKYcYdbVgkTYH0d/XrjaHz09g9/6TiMUSqiFwEpx9lMlk8cLBIRw7eV7MNIu21hB6ulrlOpULq5nFha6mFHweevcOEntLe0oJ7/A73KWEh/LDRp6+JdpFCDc/p9a6UBvmqxOwjFoL/rwkUrjjhvWii1kRTjciIvi795/C2XMTSvid4PT7vB5MTkXx3AsnMDkZUeedSKZx/ZbVog+cgGAeqMnBoXWCA7jFzkSkhnEAV93JW1lsJPr09IWiKoF8yGuGh3Qlqh9E7Fs6W3DHjRtFKFNmeAfKW95/aEiFSHiXrh0xbsRy4+iJc9h38LRagoEef1wasqs3DGDdun4gpeYdauoFCn4p0y352VJm/uSJjcI70sKVUn/ZaDjQOdAsgYjk+o0DuPm6tUowCcV0YjKswj3jpvdsJwxvPoXnxbsfyumV8PyvWj+AW27ZCIi3r6knxNvkIGzRoi2fZ2inwtM1ib1qS1HxLKlNVkbbfgaPpihEQK/evAo3bVunxJS43R7l6e8/PITjpy7YZpDXKwJ/fmRKCX40lpiddWQI/jLcSsHXHn59oqIVIt5KuIuwRTWuWXlqt8omB7AyCanQYSAdkcSReqNCLx6spchLUp+X4/n5xLT5efORiTao/JoK4Pdi396T2LnrGPw+rxJ5mi9DJ81NAVy5fjmCQZ+57HJ1MQZrMzh87DxGxqaU2FvnR8G/ct0y3HbblaoB0yHIOkTF5EV3eM8Roxb+Vnltkn3SANAp5Tr5i2F9njeacnzSJw2At8XYLrOeVVf0UyLuySl5jYtIS8pKBVAXZCW+LHGBcfm8EvmY8R1WI5Dv5zXORgn/KVP4LwprxjTj9av61VTPVBWFn+Gb6ZkYDh45KwKfNMM5FwX/irX9uP32TWK39nmOs6YCzEqpvNIppeAz+kAPPtBhNAaLccnn+V4Sox+cEcReRKBTtksYMzCpruirJ1ydl19ll9cS60KQTJw6Znj3VkhHi3zjQeF/4RSefO4oAvLeCuvQlLmmDadCXrluQJkYp0pWCv4uf/r0mXGcOjOiZhjR4yeXCP6dV4vdS09U01hYws0Ho7QsB4Jdxna+zEqz+R3t641eQIlUN6bPLo/yyCUVI9b8iHp2pPn5Yr5D43xETK++ZiVu2b5OtDSlBJZQhDlFcmwijKd2HUU4Elcx9krAWUOpZAp7XzyFk0MXlHc/V/A3rOnD7XdpwW9YlD5J4vpKviJuuprVOPM7yiD4pLqiz65OKd0TVm7VcMjrbCuoaUhEVDddvRK3bV+PWDx5ifBT6OnhczD1xOkRta3qTplgvH50fAbP7D2OmXAcPnN8gViCv351H+68e7P0brXga8Q21JOwitUs+ZyXulceqiv66uJb5LWEi2d8Sy3Qpml4RFyvumYFbrthAyKxi8JP6HXT6z91ZlSJPxsBT4krWnKGEL/3wOEz2C+J2/TwLfj7iURaCf5d91LwOeakaWzEJn3UvCKhTTMFjDvTy0GVRV/ggAYHOXIqaEEwlq9CPEV+XlNfxEX4N63AXTdtRFi86lzhV+Ee8cJ5J+/O545gZLz4hdv4OX7P07uOYWRsWjUolndPLnr4vSL41wARLfgNT65gl7LcBs3M51hPX+CCQqWsL8FMDHbKq57rrDERsb1ChP/eW65EOHKp8BN6+PTIXxTv/MVDQ8pbt+LvS0Fd5yyhk6dH8Nze42o6qDUd04K/x7GFjWv7cec9FHwd0tGYKAMyQ9JFIZ/ztZnvy0P1RZ91hVOPim75JBMYH5tdq0ejEeJJbLhqOe69jcIfv0z4ldcvYj06MaO8dR7jM6d8zgd3c1XMTDqLZ/ecwMkzo+rzcxsLy8O/at0y3HHnJh3D1+QgGkcv35ppWCi0YZpxsNvYLhO1uzlr4oDxukClWxTOf41ckHRemq0iM1RTn/h9OHLwDH7w+H40hwKXiTrNnRafzmTU1M7l/R1qxUs+20BVBTmenwhHYjg/OoWh4fHZu33n+y4l+OsHcOvtVwIxPQ9fY0JbomPbsc5wUIvx9Pl5zvFvWW3uKA+1E/3YqHhF50S0S5jNM/qi0WjMqYyaBifgxaEXz+DhJw6gKeS/TKwJzd6aw+8S7z0U8CEgKSEiTiFPmUslWJ79vIIfT2HTxmW45Zar9I1XmkuxBLtdRL+YULRqNCS1rTEbjfJRO9EnkweNCytGtOnth8XbL7Xh0NQnIvwHXxzCo08eUk/gWkj4LVQdk//o5+ceutDn2DBs2rgct9y8UY0paDSzKGOil79WBFuEvygvXxoKxvKbB80d5aP6Mf1cmuSCuBRDsV2fph5D8HMqr0ajEC/8iisHcedNGxGT9/P5NhR0K9Gj54AvX3P3z8US/GuuEMGX79aCr7kMalNABNtb5CxDZase0bdlxnaZqa3oc+olp3BmJJOKhbc3q4XatPBr5iCCfMVVg7j9hg0qFFNqpzZX8G+S70RKC75mDrQxRiGaRbCLDuvQoZXPFzsAvAS1FX1Cb19568UIv2SQXxoNtqpFfV5T94hIX7lpELfdsF4JdrHCPyv4G0XwbxTBT0uFLq0N0dQblmA394umFXkDqeoltIuulXeaZi61F33SusbMsCJqEcNDrSvljXTFi6zQmjpHCf8K3Hb9BrUev7UiZ75c4uHfJILPB6BoU9PMhYLNOflcWK0YJ5Sf4UqcTcvNHZXBHqLPVrF1lXHRRQm3CD5HuYv+vKbuMT3+W7evR0pEO1/hv0Tw6eHrJ15p5oPawyViGG4uVvAZzmkWHaww9hB9wkGPpgHj4gsWbjme4wPNxX5e0xCYHj9X50zS419i2WUKPgeBjZCOfsShZgGU3ojjyYhDMXF4S/AZ8ajCfUe1nbI5H4kJIHxWzkzao3lmTywKxwZmzgDRESMTC/28pjHwe3D08DAee/qI1LesuvN2LmnZz7n6m68YxI2clhnX8/A186DkU1LbasPxLNTLtwSfN2Cxp1AF7Cf6JDEJRET42XoWKtzMQDYa0VF5X0TDoWkMfB7MTETw1O5jODM8odbUsSoCp262t4Zw07a16B/s1oKvmR9L8OnhM5ZfrOArD796KwfbU/RJMiLifcp4X7DHLxk4fVoq67gh/BrNfPBuWxH/xEwM49IAWHH+tpYgmrulEidSdPnVPo3mUsRWONW8fa0Ifos5bbwAaGt8/i2fhlVl7Ovpx0aMjCxI8M1jI/LZuCRemfb0NUtBE6GdWLbCWL9NfSGNjaCNMAbPsUROsVSefr52Y9oYF48MLataaIfYS/RTUSOsw4eeFxqT5/F8YPqMePiqsSjw8xqNRlMolE8+vzbAiSSDhnjnHeYxhZ/H+9qBpr6qhHnsIfq8c236pIi9iP5sHL4AweYVTB8X0Q9LpkmXSYu9RqOpGjniHeoV8RfxLkRW1bFM8nl/p+H5V1DD7BHwpleuBJ/eOU+pwAum0KfiWvA1Gk0NEM2xdEutJVagBlGzrM8XHNIuHHuIPmm2bmoooIW0YE+hhYu3cR51EZ/XaDSaUqC3TrFmiCbv8E4Oytvn5weM7QpiH9HnGjqMZxXSLZpFPhOUz+unaWk0mlpAhzPULRpW5IAsP88nZDFaUWHsI/pErcEjrWQxws3BlNYVxX9eo9FoioGawwHcYK+8Z7ShQPh5rrnDz1cBe4k+Wzm1FINkXMHCLcfzSTVsLVX3Sgu/ZiHENmgjjJ9mEkA6bswYSzFFjde07OfftS1pFoM6RRtheLmYWLylc81cNLI62HOePqdtxiekETAHNwqBAyITh41KqwZHNBoTZeriUEivMOnpQDbYg4S3U5ysdnEY/PB4PPD5fGI6USQjo/AnRpAJn4c3My22xEkCehqwJhexJ0YY1IydItbPVw2GfIaLrPEGryph3ztyZ04CSU7BLFT45ViOoI8flfeSoVr4Gxtl3uKJSeVKw4tUYBnSrRvgCrSKaXikAvBvXIIha4i+99KYKu/TSksD4J48CJc4I4Y58hixM90ANDYUfIo1VwgutDdoCT4flhLoMndWB/uKPpk5YSzHQOEuqILJ8Sn53ORx43O6ctYGt0vsOiMOspQHrawqpsbKxFdDzDNZFzL+DiQCy+FqHZRzCYpcG3/LhdXA8vTnQ51+Ko70xDG4wqfhSU6JWdK22ArQPnlUFeyMv0nYGvE9XzXVh4LtDgLtawrXF0vwOR+fa+9XGXuLPomcAeKTRuUqJHN5PG/WmpaGw9rWVA1a1cmhMSRSGfh9HrS3BdEc9IuoegyxUlZH41eHlw5Ng56XpJQrAJevBXF/H9wtK5D1BuUnpfxZ0Rb4waVEPxels8kZpCZOwpu4gGxiCp5sQq6L1ya9gHJeE/9hfknjmUikMBNJYHImhpTka3OTD8v7+IQldaCmWtDOOPBKwVfDogUUuCX4HLsMdJo7q4v9RZ9wHZ7oBTlbMW4l/HkaOSs6ewrTp4yM5ue01195RKROnR4XgYqrB43TwriYGd/7vB6EAl40h/wIBL3widB62BOgsOWirHKuabL8zLeE9SeTUStkxhMJZEKD8PdcgbR4YG5fyDh0EaHPpRDRz0X1F6QHkI1PITl5GpmJQ/D7g/JdLqOHk0s+1yRk01l1Tal0Wq3nPx2Oqyd+JZNplZfsYfAjPKanqxl9vSL82uOvPMx82hOXUGZIRzmSeeY7P6uOlZJrWWmsuVMjnCH6JCVeO5dMziSNzM5XvHlsSrwwrsnDmRmFfFZTHCJ2+w8w/i3ilJPXlqmpumO+p+B7JVEk2SB4meRzHukReOTVsk5+DUWPDz6hl5tIiUcvopdR4phBMhFH78Zb0LlmG7Is73wro0mxop9LePI8jj72RWnMmuHxyjW43apnw+vzed0qL7h9yTXJtbDh4qu6DrlGruWvRF+ukZ8xkvWZi/nJvAhIA7p2dbe0AIVdr6ZAlNGK4AfFO1dPx8o3v/k5vrCxEKHnoK1qLGqHc0RfIacaGTZW4VRIBcipBAtjHhM5Z66zz+18P6spGBHrU0PjCCtPf2EDzzU96y0HVFUlUe8vxSoto9hYfhf3ZTMptPStQ/81L0WGS3IUSDlEf+L0Ppzd9wjcXuMGHXX+6nKWvibjWi69JrXn4sYlML8y0lj0dDajt7dVe/qVQhkm+3NSEFw1gKKveo95MPtZqQOhvpqFc+ZS2yanYCTjGQtrXSsuYki2zQE5SzEWhH+XxGlVXP/aE7j4uSU/qykYEaCB3jYzexfO34terEv1CpjoHdP7t3oAucnaz4ZEHZ/zeZd4T4nIpLyaX14DYjPjOedjnF++18RjLr8m84vnxXjiV7eIvhb8CqCM19QXnzSqnVeI4HfI9hKCb2mKOk5euYBa+0bbCD5xmOibULRbV0s3a428D8oOM6OXggXIG7j44AJ20dTzKPP8rKYgvAEPOjuaVAiiKp1JUcikiH6Om1x1UjHO5698lWJ+MgTU19MqvQpnVmFbo+xVErWiTTSmXbSG5Ur9WIxcO/dJA9G2zpiSWeNwzlycbTEsFC7dwOdLKq8/H3HhMXIsu2ldVxmDMmqfpqyks1jW26pi9NXJXZfUyRTSiZh6XwsSsRnloVcain5LyI/2NrF/7eWXGclP6gijAh0bjDg8Z+vkC2dv0bPng1WKXYenwjjfTWABzfCxinIpBVU4OTYmnmFixnivqQAurFjWXj1vX34iGZXyrILwzkV531F6+pX9bf4OG5bBgXYt+BVByo9lyPE/TvwoBH6Oy3pw3NHGOFv02d2aPChv5LWQysbuFpd54INX+L7CFbVhEYEKNQfQ29WswhEVF375/kR4TIqz+madTsaRjEfkXeVsSTUs6QwG+9vhkR6UpkJQD2irk0dNL78QbZFySYi2cEUBm+Jc0eeiWJOH5I0UTkGVXAqQ3j2f1KXWU9GCX1FEpHp7WtWNRJyrXynhVwOfHg/Gjz8LL28AqzIXDj8Jt8enzqMSWILf292Kltag9vIrDTWFTuWEaAyniRcCQzycYj51TDbsV07OFf1MXFIRT6kh7LaxLLTeVwcRqNWD3fB73MqBqhQutzGD5/Sz34I3EJBGwGdUXlXQiydjtkxx1WH0xC6Mn9wrv8c1eSoDQ2Qt7DX1tKj81FQDsY2sCL4SfdpJIcjxXLm10AajCjhsnv4cmKkM0ShvvwDvjsdGR4CZIWn2KAyFFqimYCSLM+ksjpwcEY/VuDu3EtCcs+kkPP4mdK29HqHO5VLEnKK7tJm7OU9/zoJr8+MSEU4hMjaE0WPPITIxDI8vWDEvP53JIBTwYc2qbi341YJePm2GU7w5mLvUzB0LfobTNTmlnJNMbKgtzhZ9C95tm5yQq7HCNXlkNL26xLR0wU4Zhxfp5WkKQPKZd5weOTGqNisp/Kx8FGZ5o/6vFGqlTqYKCj7v5t2wpsCHbWuKY1a0xVHgdE06heoGqyVQZcPPSuIjEwPSQNuU+hB9Qq8/fMZ4tbr0S1ZEOY4FPM1GY0qO1zH+iiP5mxLhP3Z6TDz+tAh/5Rrbaph2pcSeMIYf5DIL9PDro5bal1nRFoHn+vhN/cb2Uhmf+zl/u3HzqM0dyPoRfQuuwR87b8Tt8xV/hns4m0et7SPeoX5YRmWRrGWoh8LPlSMp/Dq7L8IqyRBYS7Mfq1Z06ZBORaFgm6Kt1sZZDrWC5lLhHEvs2QvwthnLLPCRiQ6g/kTfgqtrxkeMUXSFNACLKgsbCClArs3DFT2ZLWw0tBpVBmarZPHpsxOYCsfUMgSV9JqdgiH4GXR3NqG/v4PxHfMvmvIixkflU6EcEfkm8e4D4qnPivl8WJ+RMqGt+kyx52wdB1G/om/BxybGRciT06YXv4T3z7/zOA70xsbNAtbiXzEkW0fHwjg/atzNWqk4v91hNVR+hlz+QF872tr0tMyKYIk66zXFPtRjiL3yQhZoYC/5TMBYR4dr6jhUE+pf9C14mRT+hAg5n6rFq1YNAF/nKTz+LZ2UBmNMxH9C7EHeL9VgaIpDhD4WTeL08AQSybR4/cYUykaBVZA3rzWHfBhc1g6vTzxHLfjlJVe4uXxLkGIvnjrtjPvmkns8w72+FhH6LnmVzzqcxhH9XCjgfBoXB28531+xQAOgPH/pAibk2Jg0ALwpTB0jSYt/+WBWiiVeEI9/ZCIsmxR+ZnFpeaw+Ld9hfQ2/l/8zhGLBGTLKCTDhsdYAM3se6hxY/41/jEOl2uR8pChY9Tj/nqts8q7lzg5zHahSv1hjYEmbEm4pQz64hGEc9QAT2Z7r2c8KvSQez2mXgQ5D8AuZEm5zGlP0c0mL6HMQNzVjhIJoC/M1ABR/ZhUHiuPSW+ArG4PFeguawhGRTSSSGD43g3A0rgSXWZuP+FvH8T8+kISzgyiqfOpUTL4zxadPpWS/iDz3W6JAL1tVdhN+3hD9rBSv8X1+PtzFx/X2vfBL4sNQrKWSeSyrkZGM71gMJfaS+L3trUH09bQYyypo7748qEKQRLHnlEs/Y+/ipasl1c2/KXiM9SqJdZmDsZyFw+WU1XTN+kOLfi6c7qlCQOwBSG9AGQLFxhQc6z2NQzUWchzX2eBDO9QhugEoCyqbXYhGEjg/NoNINGHuMvI195WJDxOhyLOx4CMaY/GEmhZqCH9GqrQhsMbHrM+qlyWxNIH/WO9ZZfi76ilfIvpsCIJBH1qag+rxj3wCGH8mtxGwqhkbGzYkrc0B9HW1wBfQoZyyMJvR9OqlHnIGDh86Ti+dA61qfXv+3cprebVCNzzWKyLvr1+hz0WL/kLQ62cDwESBt7qIpmio95b3z+mhDBfxiV7K+59znKY4VDYy3p/AyHhEPYmL2c2QC7117p+aiYrIJxFPpJT4W555brZbjUQ5ya02lrjzlQ1BwO9FKBhAW2tI9QrU+Urjw4eetLUE0dXepMW+HFhlYNVNLmXMQVnG6nO9eus4K5zD+3H4dw7GMr7vsNk3paJFPx84m4fCzjEANQhMr4HZplRJ/hfxVw2A7Ff3CdD7t8I/5jGkAuLTEKgsdCOdTOGCeP4Hj53H6Pi0eoYsvWor7l4JcS8EoyYZoRt69Ek531DQj76eNly5rh/tbU2qUdJiXwKWXM0KvQg2PXSKvfWwcf5NHSeJr6ybPI5ev5dJjmvguqhFvxg4mJuckVf2AvgQbtODUPcCmIkNhYr/SwPAewbAhkKpFw80XxrX8IqGoilpcjyMM8MTOD08jmgsiVTaeIg4GwA+ctCiUg3B3GpDkVfjBPJzDPm0NAWwdlUvejpb0MJHGial/HVVK5zcPLOEniEZijxj9b65Qs+6yDKXOkgvXgm95L9DbpyqBlr0S4XGlpZeANfxYUOQFbG3egGqARADtXoAHCuIy3FsANQh8neLBvY8ikKJv+SfvCbCMTXXf2R8BudHptQAMPWX4R7jUOkFyHHqvxKymTWF1YXJGohVjYyktpYQ+nta0dPVii4Rebd4+NISyUmoD5nfoMmL2fwy804JvXjqfEYtB1itaZNK6OlMETmGsXmPiLyfIu/8qZWVQot+uWFIJy2ePRuA2UaAUKCkASD0/Pk3DgRzvIAoNcpRJN0I5A+zig0A88wjKZXB9FQE09MxROMJjE9GEY7EEIsZs3jUkKxp9YsZP7+Wf2dvwSPJ7/eiKeRHa0sQHa1NCAa9Suyb2hgukAONlsZ41eTPJRJEIeerZKiaT8+wjYg4hZ51aza0KrhF5OnJ85GnFHldZ/JCi36loTfC+D6FXoWDeJOXGOdsGEi2E/y7/I29Bas4lAHnGLE26MJgfrE3QPiq8tzcz5k+YWN6blT1Cui1X4QlwOmYHIxlbyHQanmN8hf+0fLeVeJu/qPJm0vyy8xHvjLuzrCNEnJJLCsKvTpG6pESf4ZrONtG3muKQot+LeCgMBsCDgozERXqkaRCRWYvgclQKqMCzL5qSsbKxoXyU9UKs2roGlIeLHG3XmnzFHG/KfKMu9OTZ2+JPTcVqpFelIcpoL5CUzpa9O0AvX2rAaDoc97/bCjIbBzYG1CLx1nCbybdCGjsyiUiL0JOe1Uiz7g8hVw8dnrwLvm7W3pTDOdwZo2aXUMnSFMJtOjbFc4Q4tgAbxhj3F8tFyGVJsHGgQ0Ap5DKe1WZpILMNgR80Q2BpsrMyogp8hRzNU3SFHF689bceb5S8Cnyyouv/xui7IQWfSdBobcagdxXNV7AHoKkDKeQiuhf0hvgh9U/Gk3pzBV4vjJZQq6mSlLMKe4Udr/xN5V0mKbWaNF3OrxPQDUAOYl3B6tQkTQKDBWpJaUp/mYjYDUAukegWYr5BJ6vSshFwDmoSoH3cZYNRZ37KfTynp6+xnZo0a9H2LVmY8AwEBsBhoq4pDQHiFWoKGn8XYm+FRoi8qobgsYkV9zVi9gQ9ykToccuAq5WnWwF/B2GqFPkVSxee+9OQot+I6EaAzMMpAaHp6CmisalMciyIZDE+wrUIBobAPPVQjcIzucScZfEbbVPEj1zLjhGEedNUOqOV0nctrx3bQOOR4u+RhATYG9AzSCS3gHvF2CvwBowZkOg5ksLsw0CK79uEGzJJcLOF76anjtR4u4XMRch541NnE2jBlrNQVcdd69rtOhrFkdNJzUbBC44Z00dVYPKZqhI3SWZ2xDkvjfRjUL5mFfUzWT9jct/WHF3KyxDgafnboVm6ujBIJr80aKvKQ6aDQWfg8TW2kMMF6kZROY4Av+2YKPAL1H/5LwKjdw4XFIVrffyau1neE7tlzxS3rrpsVsDqtYdq/TcKfTWMRpNDlr0NZWBAmU1Cny17jDmzWaqh8BZR5LUHZhyDENIStSIiFpuA0EuaQxy35uoXfPsrzbzVqc5+2aP4asktc0k58/wGYWaC4wp0fbliLop6OrmJfHS+Xd68xpNAWjR19QQMb00xd5sHFRDIQ0Bew0MJ3EfQ0mzDYg0EHzPhkI1EBRM9iL41mowCMcdTObtORTaOMxXRfjb5lv1JucYFTaRbQo3sbxt9VQmOTfejKQEm0JOj1xEXT2kWz6nxNz8u/U5jaaMaNHXOItLGgAmaRgIGwiKObe5eqnVU2DvwmoYFLIvw/EIOS6fUBKrh5pzTsG2qgr3cTYLvWyKuwg1Z7oo5DuVWMt+irk6lq/cz8ZAo6ktWvQ1Go2mgcjpB2s0Go2m3tGir9FoNA2EFn2NRqNpILToazQaTQOhRV+j0WgaBuD/BwlcfrgqjJ16AAAAAElFTkSuQmCC;" parent="FMmth3AjqtejWKc27fLs-54" vertex="1">
          <mxGeometry x="-80" y="80" width="40.97" height="40" as="geometry" />
        </mxCell>
        <mxCell id="FMmth3AjqtejWKc27fLs-14" value="&amp;lt;&amp;lt;deploy&amp;gt;&amp;gt;" style="rounded=0;orthogonalLoop=1;jettySize=auto;html=1;" parent="FMmth3AjqtejWKc27fLs-54" source="FMmth3AjqtejWKc27fLs-12" target="FMmth3AjqtejWKc27fLs-3" edge="1">
          <mxGeometry relative="1" as="geometry" />
        </mxCell>
        <mxCell id="FMmth3AjqtejWKc27fLs-36" style="rounded=0;orthogonalLoop=1;jettySize=auto;html=1;dashed=1;edgeStyle=orthogonalEdgeStyle;" parent="1" source="f5sbZfVMmakPh9GxGSuK-12" target="FMmth3AjqtejWKc27fLs-40" edge="1">
          <mxGeometry relative="1" as="geometry">
            <mxPoint x="641.1315625" y="350" as="targetPoint" />
            <Array as="points">
              <mxPoint x="620" y="400" />
              <mxPoint x="620" y="340" />
            </Array>
          </mxGeometry>
        </mxCell>
        <mxCell id="FMmth3AjqtejWKc27fLs-47" value="&amp;lt;&amp;lt;access&amp;gt;&amp;gt;" style="edgeLabel;html=1;align=center;verticalAlign=middle;resizable=0;points=[];" parent="FMmth3AjqtejWKc27fLs-36" vertex="1" connectable="0">
          <mxGeometry x="-0.5552" y="-1" relative="1" as="geometry">
            <mxPoint x="-70" y="-68" as="offset" />
          </mxGeometry>
        </mxCell>
        <mxCell id="FMmth3AjqtejWKc27fLs-20" value="" style="rounded=0;orthogonalLoop=1;jettySize=auto;html=1;dashed=1;dashPattern=1 1;edgeStyle=orthogonalEdgeStyle;" parent="1" source="f5sbZfVMmakPh9GxGSuK-2" target="f5sbZfVMmakPh9GxGSuK-12" edge="1">
          <mxGeometry relative="1" as="geometry">
            <Array as="points">
              <mxPoint x="640" y="140" />
              <mxPoint x="640" y="360" />
              <mxPoint x="720" y="360" />
            </Array>
          </mxGeometry>
        </mxCell>
        <mxCell id="FMmth3AjqtejWKc27fLs-35" style="rounded=0;orthogonalLoop=1;jettySize=auto;html=1;dashed=1;edgeStyle=orthogonalEdgeStyle;" parent="1" source="FMmth3AjqtejWKc27fLs-18" target="FMmth3AjqtejWKc27fLs-40" edge="1">
          <mxGeometry relative="1" as="geometry">
            <mxPoint x="639.618125" y="350" as="targetPoint" />
            <Array as="points">
              <mxPoint x="620" y="190" />
              <mxPoint x="620" y="340" />
            </Array>
          </mxGeometry>
        </mxCell>
        <mxCell id="FMmth3AjqtejWKc27fLs-56" value="Organization Account N" style="points=[[0,0],[0.25,0],[0.5,0],[0.75,0],[1,0],[1,0.25],[1,0.5],[1,0.75],[1,1],[0.75,1],[0.5,1],[0.25,1],[0,1],[0,0.75],[0,0.5],[0,0.25]];outlineConnect=0;gradientColor=none;html=1;whiteSpace=wrap;fontSize=12;fontStyle=0;container=1;pointerEvents=0;collapsible=0;recursiveResize=0;shape=mxgraph.aws4.group;grIcon=mxgraph.aws4.group_account;strokeColor=#CD2264;fillColor=none;verticalAlign=top;align=left;spacingLeft=30;fontColor=#CD2264;dashed=0;" parent="1" vertex="1">
          <mxGeometry x="660" y="320" width="260" height="140" as="geometry" />
        </mxCell>
        <mxCell id="FMmth3AjqtejWKc27fLs-2" value="Custom Resources&lt;div&gt;Stack Instance&lt;/div&gt;" style="sketch=0;outlineConnect=0;fontColor=#232F3E;gradientColor=none;fillColor=#E7157B;strokeColor=none;dashed=0;verticalLabelPosition=bottom;verticalAlign=top;align=center;html=1;fontSize=12;fontStyle=0;aspect=fixed;pointerEvents=1;shape=mxgraph.aws4.stack;" parent="FMmth3AjqtejWKc27fLs-56" vertex="1">
          <mxGeometry x="179.99999999999994" y="60" width="41.06" height="40" as="geometry" />
        </mxCell>
        <mxCell id="f5sbZfVMmakPh9GxGSuK-12" value="Stack Set&lt;div&gt;Role N&lt;/div&gt;" style="sketch=0;outlineConnect=0;fontColor=#232F3E;gradientColor=none;fillColor=#DD344C;strokeColor=none;dashed=0;verticalLabelPosition=bottom;verticalAlign=top;align=center;html=1;fontSize=12;fontStyle=0;aspect=fixed;pointerEvents=1;shape=mxgraph.aws4.role;" parent="FMmth3AjqtejWKc27fLs-56" vertex="1">
          <mxGeometry x="39.47" y="68.72000000000006" width="40" height="22.56" as="geometry" />
        </mxCell>
        <mxCell id="FMmth3AjqtejWKc27fLs-22" value="&amp;lt;&amp;lt;deploy&amp;gt;" style="rounded=0;orthogonalLoop=1;jettySize=auto;html=1;" parent="FMmth3AjqtejWKc27fLs-56" source="f5sbZfVMmakPh9GxGSuK-12" target="FMmth3AjqtejWKc27fLs-2" edge="1">
          <mxGeometry relative="1" as="geometry" />
        </mxCell>
        <mxCell id="FMmth3AjqtejWKc27fLs-57" value="&amp;lt;&amp;lt;assume role&amp;gt;&amp;gt;" style="rounded=0;orthogonalLoop=1;jettySize=auto;html=1;dashed=1;dashPattern=1 1;edgeStyle=orthogonalEdgeStyle;" parent="1" source="f5sbZfVMmakPh9GxGSuK-2" target="FMmth3AjqtejWKc27fLs-18" edge="1">
          <mxGeometry x="-0.3554" y="10" relative="1" as="geometry">
            <Array as="points">
              <mxPoint x="600" y="140" />
              <mxPoint x="600" y="140" />
            </Array>
            <mxPoint as="offset" />
          </mxGeometry>
        </mxCell>
        <mxCell id="FMmth3AjqtejWKc27fLs-66" value="&lt;b&gt;&lt;font style=&quot;font-size: 40px;&quot;&gt;...&lt;/font&gt;&lt;/b&gt;" style="text;html=1;align=center;verticalAlign=middle;resizable=0;points=[];autosize=1;strokeColor=none;fillColor=none;" parent="1" vertex="1">
          <mxGeometry x="750" y="240" width="60" height="60" as="geometry" />
        </mxCell>
      </root>
    </mxGraphModel>
  </diagram>
  <diagram name="CustomResourcesStackDetails" id="EzTQ2MACucj59wiGxoQA">
    <mxGraphModel dx="1015" dy="774" grid="1" gridSize="10" guides="1" tooltips="1" connect="1" arrows="1" fold="1" page="1" pageScale="1" pageWidth="1169" pageHeight="827" math="0" shadow="0">
      <root>
        <mxCell id="SLZ06ex3QBbe-dfHyi01-0" />
        <mxCell id="SLZ06ex3QBbe-dfHyi01-1" parent="SLZ06ex3QBbe-dfHyi01-0" />
        <mxCell id="0JRtj5tRaeavRK91XyZd-6" value="Stack Resources" style="fillColor=none;strokeColor=#5A6C86;dashed=1;verticalAlign=top;fontStyle=0;fontColor=#5A6C86;whiteSpace=wrap;html=1;recursiveResize=0;container=1;collapsible=0;" vertex="1" parent="SLZ06ex3QBbe-dfHyi01-1">
          <mxGeometry x="240" y="160" width="320" height="240" as="geometry">
            <mxRectangle x="250" y="165.13" width="120" height="30" as="alternateBounds" />
          </mxGeometry>
        </mxCell>
        <mxCell id="zAtL5n6vLj8N49D-tW4B-1" value="Custom Resource&lt;div&gt;Lambda&lt;/div&gt;" style="sketch=0;outlineConnect=0;fontColor=#232F3E;gradientColor=none;fillColor=#ED7100;strokeColor=none;dashed=0;verticalLabelPosition=bottom;verticalAlign=top;align=center;html=1;fontSize=12;fontStyle=0;aspect=fixed;pointerEvents=1;shape=mxgraph.aws4.lambda_function;" vertex="1" parent="0JRtj5tRaeavRK91XyZd-6">
          <mxGeometry x="220" y="159.46" width="40" height="40" as="geometry" />
        </mxCell>
        <mxCell id="zAtL5n6vLj8N49D-tW4B-2" value="CloudWatch Logs" style="sketch=0;outlineConnect=0;fontColor=#232F3E;gradientColor=none;fillColor=#E7157B;strokeColor=none;dashed=0;verticalLabelPosition=top;verticalAlign=bottom;align=center;html=1;fontSize=12;fontStyle=0;aspect=fixed;pointerEvents=1;shape=mxgraph.aws4.cloudwatch_logs;labelPosition=center;" vertex="1" parent="0JRtj5tRaeavRK91XyZd-6">
          <mxGeometry x="60" y="80" width="40" height="29.74" as="geometry" />
        </mxCell>
        <mxCell id="0JRtj5tRaeavRK91XyZd-3" style="rounded=0;orthogonalLoop=1;jettySize=auto;html=1;" edge="1" parent="0JRtj5tRaeavRK91XyZd-6" source="zAtL5n6vLj8N49D-tW4B-1" target="zAtL5n6vLj8N49D-tW4B-2">
          <mxGeometry relative="1" as="geometry" />
        </mxCell>
        <mxCell id="0JRtj5tRaeavRK91XyZd-1" value="LambdaPermission" style="sketch=0;outlineConnect=0;fontColor=#232F3E;gradientColor=none;fillColor=#DD344C;strokeColor=none;dashed=0;verticalLabelPosition=top;verticalAlign=bottom;align=center;html=1;fontSize=12;fontStyle=0;aspect=fixed;pointerEvents=1;shape=mxgraph.aws4.permissions;labelPosition=center;" vertex="1" parent="0JRtj5tRaeavRK91XyZd-6">
          <mxGeometry x="224.1" y="80" width="31.79" height="40" as="geometry" />
        </mxCell>
        <mxCell id="0JRtj5tRaeavRK91XyZd-5" style="rounded=0;orthogonalLoop=1;jettySize=auto;html=1;endArrow=none;endFill=0;" edge="1" parent="0JRtj5tRaeavRK91XyZd-6" source="0JRtj5tRaeavRK91XyZd-1" target="zAtL5n6vLj8N49D-tW4B-1">
          <mxGeometry relative="1" as="geometry">
            <mxPoint x="62" y="181.87" as="sourcePoint" />
            <mxPoint x="131" y="254.87" as="targetPoint" />
          </mxGeometry>
        </mxCell>
        <mxCell id="ydsAPntUVMyvzK1O21ah-3" value="" style="rounded=0;orthogonalLoop=1;jettySize=auto;html=1;endArrow=none;endFill=0;" edge="1" parent="0JRtj5tRaeavRK91XyZd-6" source="ydsAPntUVMyvzK1O21ah-0" target="zAtL5n6vLj8N49D-tW4B-1">
          <mxGeometry relative="1" as="geometry" />
        </mxCell>
        <mxCell id="ydsAPntUVMyvzK1O21ah-0" value="LambdaExecutionRole" style="sketch=0;outlineConnect=0;fontColor=#232F3E;gradientColor=none;fillColor=#DD344C;strokeColor=none;dashed=0;verticalLabelPosition=bottom;verticalAlign=top;align=center;html=1;fontSize=12;fontStyle=0;aspect=fixed;pointerEvents=1;shape=mxgraph.aws4.role;" vertex="1" parent="0JRtj5tRaeavRK91XyZd-6">
          <mxGeometry x="60" y="168.18" width="40" height="22.56" as="geometry" />
        </mxCell>
        <mxCell id="SLZ06ex3QBbe-dfHyi01-4" value="Custom Resources&lt;div&gt;Stack Instance&lt;/div&gt;" style="sketch=0;outlineConnect=0;fontColor=#232F3E;gradientColor=none;fillColor=#E7157B;strokeColor=none;dashed=0;verticalLabelPosition=bottom;verticalAlign=top;align=center;html=1;fontSize=12;fontStyle=0;aspect=fixed;pointerEvents=1;shape=mxgraph.aws4.stack;" vertex="1" parent="SLZ06ex3QBbe-dfHyi01-1">
          <mxGeometry x="120.00000000000006" y="165.13" width="41.06" height="40" as="geometry" />
        </mxCell>
        <mxCell id="zAtL5n6vLj8N49D-tW4B-4" value="Cloudformation" style="sketch=0;points=[[0,0,0],[0.25,0,0],[0.5,0,0],[0.75,0,0],[1,0,0],[0,1,0],[0.25,1,0],[0.5,1,0],[0.75,1,0],[1,1,0],[0,0.25,0],[0,0.5,0],[0,0.75,0],[1,0.25,0],[1,0.5,0],[1,0.75,0]];points=[[0,0,0],[0.25,0,0],[0.5,0,0],[0.75,0,0],[1,0,0],[0,1,0],[0.25,1,0],[0.5,1,0],[0.75,1,0],[1,1,0],[0,0.25,0],[0,0.5,0],[0,0.75,0],[1,0.25,0],[1,0.5,0],[1,0.75,0]];outlineConnect=0;fontColor=#232F3E;fillColor=#E7157B;strokeColor=#ffffff;dashed=0;verticalLabelPosition=bottom;verticalAlign=top;align=center;html=1;fontSize=12;fontStyle=0;aspect=fixed;shape=mxgraph.aws4.resourceIcon;resIcon=mxgraph.aws4.cloudformation;" vertex="1" parent="SLZ06ex3QBbe-dfHyi01-1">
          <mxGeometry x="600" y="240" width="40" height="40" as="geometry" />
        </mxCell>
        <mxCell id="0JRtj5tRaeavRK91XyZd-2" style="rounded=0;orthogonalLoop=1;jettySize=auto;html=1;endArrow=none;endFill=0;" edge="1" parent="SLZ06ex3QBbe-dfHyi01-1" source="0JRtj5tRaeavRK91XyZd-1" target="zAtL5n6vLj8N49D-tW4B-4">
          <mxGeometry relative="1" as="geometry" />
        </mxCell>
        <mxCell id="bN_gKZc3zabzD3A2FICd-0" style="rounded=0;orthogonalLoop=1;jettySize=auto;html=1;entryX=0.001;entryY=0.107;entryDx=0;entryDy=0;entryPerimeter=0;shape=flexArrow;width=8.13953488372093;endSize=6.225581395348837;endWidth=8.107084910762575;" edge="1" parent="SLZ06ex3QBbe-dfHyi01-1" source="SLZ06ex3QBbe-dfHyi01-4" target="0JRtj5tRaeavRK91XyZd-6">
          <mxGeometry relative="1" as="geometry" />
        </mxCell>
      </root>
    </mxGraphModel>
  </diagram>
</mxfile>
